<?xml version="1.0" encoding="UTF-8" standalone="no"?>
<!-- Created with Inkscape (http://www.inkscape.org/) -->

<svg
   width="58.484116mm"
   height="54.829262mm"
   viewBox="0 0 58.484116 54.829262"
   version="1.1"
   id="svg1"
   xmlns:inkscape="http://www.inkscape.org/namespaces/inkscape"
   xmlns:sodipodi="http://sodipodi.sourceforge.net/DTD/sodipodi-0.dtd"
   xmlns="http://www.w3.org/2000/svg"
   xmlns:svg="http://www.w3.org/2000/svg">
  <sodipodi:namedview
     id="namedview1"
     pagecolor="#ffffff"
     bordercolor="#000000"
     borderopacity="0.25"
     inkscape:showpageshadow="2"
     inkscape:pageopacity="0.0"
     inkscape:pagecheckerboard="0"
     inkscape:deskcolor="#d1d1d1"
     inkscape:document-units="mm" />
  <defs
     id="defs1" />
  <g
     inkscape:label="Layer 1"
     inkscape:groupmode="layer"
     id="layer1"
     transform="translate(-75.38022,-116.08513)">
    <rect
       style="fill:#000000;fill-opacity:1;stroke:none;stroke-width:0.260995;stroke-linecap:square;stroke-linejoin:bevel"
       id="rect2-3-9-3-1"
       width="29.975697"
       height="28.673225"
       x="103.88864"
       y="116.08513" />
    <g
       id="g2-8-69"
       transform="matrix(0.27498525,0,0,0.2266639,48.952796,82.887533)"
       style="fill:#14c8e1;fill-opacity:1;stroke:none;stroke-opacity:1">
      <path
         style="fill:#14c8e1;fill-opacity:1;stroke:none;stroke-width:1.08232;stroke-linecap:square;stroke-linejoin:bevel;stroke-opacity:1"
         d="m 101.91649,170.74723 v 3.96469 c 21.1185,-4.43262 -6.449944,59.85144 45.55864,67.92826 l -0.27118,-5.28624 c -33.23623,-6.00235 -6.56162,-60.7432 -35.25372,-66.60671 z"
         id="path2-8-8-9"
         sodipodi:nodetypes="cccccc" />
      <path
         style="fill:#14c8e1;fill-opacity:1;stroke:none;stroke-width:1.08232;stroke-linecap:square;stroke-linejoin:bevel;stroke-opacity:1"
         d="m 197.39131,171.02147 v 3.96469 c -21.1185,-4.43262 6.44994,59.85144 -45.55864,67.92826 l 0.27118,-5.28624 c 33.23623,-6.00235 6.56162,-60.7432 35.25372,-66.60671 z"
         id="path2-8-9-2-6"
         sodipodi:nodetypes="cccccc" />
    </g>
    <g
       id="g2-8-0-9"
       transform="matrix(0.27498525,0,0,0.2266639,77.402416,83.135093)"
       style="fill:#14c8e1;fill-opacity:1">
      <path
         style="fill:#14c8e1;fill-opacity:1;stroke:none;stroke-width:1.08232;stroke-linecap:square;stroke-linejoin:bevel"
         d="m 101.91649,170.74723 v 3.96469 c 21.1185,-4.43262 -6.449944,59.85144 45.55864,67.92826 l -0.27118,-5.28624 c -33.23623,-6.00235 -6.56162,-60.7432 -35.25372,-66.60671 z"
         id="path2-8-8-06-6"
         sodipodi:nodetypes="cccccc" />
      <path
         style="fill:#14c8e1;fill-opacity:1;stroke:none;stroke-width:1.08232;stroke-linecap:square;stroke-linejoin:bevel"
         d="m 197.39131,171.02147 v 3.96469 c -21.1185,-4.43262 6.44994,59.85144 -45.55864,67.92826 l 0.27118,-5.28624 c 33.23623,-6.00235 6.56162,-60.7432 35.25372,-66.60671 z"
         id="path2-8-9-2-4-7"
         sodipodi:nodetypes="cccccc" />
    </g>
    <path
       style="fill:#14c8e1;fill-opacity:1;stroke:none;stroke-width:0.0726081"
       d="m 92.756616,119.96063 -0.12252,-0.19305 c -0.8831,0.74452 -2.18064,2.55203 -1.88935,3.70733 l -0.67389,-0.95016 c -0.22713,0.21741 -0.29442,0.4238 -0.46254,0.67722 -0.34366,0.73838 -0.99646,2.21045 -0.73286,3.07282 l -0.63022,-0.66228 c -0.4766,0.7798 -0.95811,3.14627 -0.86794,3.67695 0.0589,0.34666 0.7871,1.64045 0.91935,1.96049 l -1.38004,-0.90643 c 0.006,0.97307 -0.15433,1.68152 0.57202,2.53934 0.0926,0.0988 0.75008,1.17673 0.85992,1.25685 l -1.24186,-0.47662 c 0.20762,0.9271 0.80698,2.52266 2.42088,2.99814 l 0.0202,-3.21441 0.14382,-2.04585 0.22849,-1.98048 0.29283,-1.06267 0.44706,-1.75218 0.32275,-0.91509 c -0.0246,0.156 -0.0974,0.31126 -0.14532,0.46418 -0.0983,0.3139 -0.19511,0.62879 -0.27446,0.9461 -0.24922,0.99672 -0.39079,1.99159 -0.52192,2.99875 -0.1313,1.00852 -0.0921,2.03079 -0.13822,3.047 -0.0206,0.45438 -0.0231,0.92451 0.0107,1.37853 0.0236,0.31665 -0.003,0.63595 0.0209,0.9523 0.0258,0.34642 -0.004,0.69472 0.0221,1.04109 0.058,0.77897 0.16749,3.0668 -0.15249,5.52441 -0.0329,0.25272 -0.0525,0.50637 -0.0855,0.75933 -0.0159,0.12224 -0.0813,0.27372 -0.0625,0.39634 0.009,0.0553 0.0674,0.12013 0.0902,0.17523 0.0835,0.20201 0.18812,0.39083 0.27138,0.59229 l 0.0238,-0.007 c 0.006,-0.23114 0.11197,-0.45471 0.26522,-0.6464 0.0666,-0.0833 0.23995,-0.18209 0.25688,-0.2801 0.01,-0.0578 -0.0247,-0.11267 -0.0342,-0.16866 -0.0191,-0.11277 -0.0448,-0.22576 -0.0605,-0.33955 -0.0468,-0.3401 -0.0523,-0.6839 -0.0778,-1.02546 -0.0254,-1.00937 -0.0293,-2.02272 0.007,-3.03237 0.0163,-0.35806 0.0278,-0.73422 10e-4,-1.09218 -0.0114,-0.15355 -0.0421,-0.33137 -0.0225,-0.4839 0.0132,-0.10243 0.19405,-0.13433 0.29294,-0.17139 0.80709,-0.30245 1.66643,-1.18056 1.68588,-1.55846 l -1.28296,0.3902 c 0.55076,-0.15582 1.76237,-1.58846 1.88508,-2.12624 0.10284,-0.45071 0.33858,-0.67603 0.30846,-1.60014 l -1.36003,0.40474 c 0.12986,-0.22197 1.26725,-1.23379 1.36076,-1.46908 -0.0281,-0.071 -0.0259,-0.13807 0.4233,-3.42756 -0.40124,0.23486 -0.79874,0.3072 -1.23731,0.5134 0.26618,-0.29542 0.87741,-1.09354 1.12626,-1.39888 0.20331,-1.25181 -0.0762,0.67397 0.31731,-2.46624 l -0.91867,0.39743 c 0.23871,-0.69206 1.40701,-1.90998 1.6667,-2.70208 l -0.97279,0.2518 1.66033,-2.71767 c 0.29536,-0.57853 0.79096,-1.06396 0.80661,-1.71944 m -5.04741,7.9461 -0.10829,0.25323 0.10829,-0.25323"
       id="path1-9-7-7-2-04-7-3"
       sodipodi:nodetypes="ccccsccsccscccccccccsssssssssssccsscssssssccsccccccccccccccc" />
    <path
       style="fill:#14c8e1;fill-opacity:1;stroke:none;stroke-width:0.0726081"
       d="m 121.2222,119.82114 -0.12252,-0.19305 c -0.88311,0.74453 -2.18065,2.55203 -1.88936,3.70734 l -0.67388,-0.95016 c -0.22714,0.2174 -0.29443,0.42379 -0.46255,0.67722 -0.34366,0.73837 -0.99646,2.21045 -0.73285,3.07281 l -0.63023,-0.66227 c -0.4766,0.77979 -0.9581,3.14627 -0.86794,3.67695 0.0589,0.34665 0.7871,1.64045 0.91935,1.96048 l -1.38004,-0.90643 c 0.006,0.97308 -0.15433,1.68152 0.57202,2.53934 0.0926,0.0988 0.75009,1.17674 0.85992,1.25685 l -1.24186,-0.47661 c 0.20762,0.9271 0.80698,2.52265 2.42088,2.99814 l 0.0202,-3.21442 0.14382,-2.04584 0.2285,-1.98049 0.29282,-1.06267 0.44706,-1.75217 0.32276,-0.91509 c -0.0246,0.156 -0.0975,0.31125 -0.14533,0.46418 -0.0983,0.31389 -0.19511,0.62878 -0.27445,0.94609 -0.24923,0.99673 -0.3908,1.9916 -0.52192,2.99876 -0.13131,1.00851 -0.0921,2.03079 -0.13822,3.047 -0.0206,0.45437 -0.0231,0.92451 0.0107,1.37853 0.0236,0.31664 -0.003,0.63595 0.0209,0.95229 0.0258,0.34643 -0.004,0.69473 0.0221,1.04109 0.058,0.77897 0.16749,3.06681 -0.15249,5.52441 -0.0329,0.25273 -0.0525,0.50638 -0.0855,0.75933 -0.0159,0.12225 -0.0813,0.27372 -0.0625,0.39635 0.009,0.0553 0.0674,0.12013 0.0902,0.17523 0.0835,0.20201 0.18812,0.39082 0.27138,0.59229 l 0.0238,-0.007 c 0.006,-0.23114 0.11197,-0.45471 0.26522,-0.64639 0.0666,-0.0833 0.23995,-0.1821 0.25689,-0.28011 0.01,-0.0578 -0.0247,-0.11266 -0.0342,-0.16865 -0.0191,-0.11278 -0.0448,-0.22576 -0.0605,-0.33955 -0.0468,-0.34011 -0.0523,-0.6839 -0.0778,-1.02547 -0.0254,-1.00936 -0.0293,-2.02271 0.007,-3.03237 0.0162,-0.35805 0.0278,-0.73422 0.001,-1.09218 -0.0114,-0.15354 -0.0421,-0.33136 -0.0225,-0.4839 0.0132,-0.10243 0.19405,-0.13432 0.29294,-0.17138 0.80709,-0.30246 1.66643,-1.18056 1.68588,-1.55847 l -1.28296,0.39021 c 0.55077,-0.15583 1.76238,-1.58846 1.88508,-2.12625 0.10284,-0.45071 0.33859,-0.67602 0.30847,-1.60013 l -1.36004,0.40473 c 0.12986,-0.22196 1.26726,-1.23379 1.36076,-1.46908 -0.0281,-0.071 -0.0259,-0.13806 0.42331,-3.42755 -0.40125,0.23486 -0.79875,0.30719 -1.23731,0.51339 0.26618,-0.29541 0.8774,-1.09353 1.12626,-1.39888 0.2033,-1.2518 -0.0762,0.67398 0.31731,-2.46623 l -0.91867,0.39743 c 0.2387,-0.69206 1.407,-1.90998 1.6667,-2.70209 l -0.9728,0.25181 1.66033,-2.71768 c 0.29536,-0.57852 0.79096,-1.06395 0.80661,-1.71943 m -5.04741,7.9461 -0.10828,0.25323 0.10828,-0.25323"
       id="path1-9-7-7-2-0-7-7-2"
       sodipodi:nodetypes="ccccsccsccscccccccccsssssssssssccsscssssssccsccccccccccccccc" />
    <path
       style="fill:#14c8e1;fill-opacity:1;stroke:none;stroke-width:0.0726081"
       d="m 91.057856,146.90891 -0.12252,-0.19305 c -0.8831,0.74453 -2.18064,2.55203 -1.88936,3.70734 l -0.67388,-0.95016 c -0.22714,0.21741 -0.29442,0.42379 -0.46255,0.67722 -0.34365,0.73837 -0.99646,2.21045 -0.73285,3.07281 l -0.63022,-0.66227 c -0.47661,0.77979 -0.95811,3.14627 -0.86794,3.67695 0.0589,0.34666 0.78709,1.64045 0.91935,1.96048 l -1.38004,-0.90642 c 0.006,0.97307 -0.15433,1.68152 0.57201,2.53933 0.0926,0.0988 0.75009,1.17674 0.85993,1.25685 l -1.24187,-0.47661 c 0.20763,0.9271 0.80699,2.52266 2.42089,2.99814 l 0.0202,-3.21442 0.14382,-2.04584 0.22849,-1.98049 0.29282,-1.06267 0.44707,-1.75217 0.32275,-0.91509 c -0.0246,0.156 -0.0975,0.31125 -0.14532,0.46418 -0.0983,0.3139 -0.19512,0.62878 -0.27446,0.94609 -0.24922,0.99673 -0.39079,1.9916 -0.52192,2.99876 -0.13131,1.00851 -0.0921,2.03079 -0.13822,3.047 -0.0206,0.45437 -0.0231,0.92451 0.0107,1.37853 0.0236,0.31665 -0.003,0.63595 0.0209,0.9523 0.0258,0.34642 -0.004,0.69472 0.0221,1.04108 0.058,0.77897 0.16749,3.06681 -0.15248,5.52441 -0.0329,0.25273 -0.0525,0.50638 -0.0855,0.75933 -0.0159,0.12225 -0.0813,0.27372 -0.0625,0.39635 0.009,0.0553 0.0674,0.12013 0.0902,0.17523 0.0835,0.20201 0.18812,0.39082 0.27137,0.59229 l 0.0238,-0.007 c 0.006,-0.23114 0.11197,-0.45471 0.26521,-0.64639 0.0666,-0.0833 0.23996,-0.1821 0.25689,-0.28011 0.01,-0.0578 -0.0247,-0.11266 -0.0342,-0.16865 -0.0191,-0.11278 -0.0448,-0.22576 -0.0605,-0.33955 -0.0468,-0.34011 -0.0523,-0.6839 -0.0778,-1.02547 -0.0254,-1.00936 -0.0293,-2.02271 0.007,-3.03236 0.0163,-0.35806 0.0278,-0.73423 0.001,-1.09219 -0.0114,-0.15354 -0.0421,-0.33136 -0.0225,-0.48389 0.0132,-0.10243 0.19405,-0.13433 0.29294,-0.17139 0.80709,-0.30246 1.66643,-1.18056 1.68588,-1.55847 l -1.28296,0.39021 c 0.55076,-0.15583 1.76237,-1.58846 1.88507,-2.12625 0.10284,-0.45071 0.33859,-0.67602 0.30847,-1.60013 l -1.36004,0.40473 c 0.12987,-0.22196 1.26726,-1.23378 1.36077,-1.46907 -0.0281,-0.0711 -0.0259,-0.13807 0.4233,-3.42756 -0.40124,0.23486 -0.79875,0.30719 -1.23731,0.51339 0.26618,-0.29541 0.87741,-1.09353 1.12626,-1.39887 0.2033,-1.25181 -0.0762,0.67397 0.31731,-2.46624 l -0.91867,0.39743 c 0.2387,-0.69206 1.407,-1.90998 1.6667,-2.70209 l -0.97279,0.25181 1.66032,-2.71767 c 0.29536,-0.57853 0.79097,-1.06396 0.80662,-1.71944 m -5.04741,7.9461 -0.10829,0.25323 0.10829,-0.25323"
       id="path1-9-7-7-0"
       sodipodi:nodetypes="ccccsccsccscccccccccsssssssssssccsscssssssccsccccccccccccccc" />
    <path
       style="fill:#14c8e1;fill-opacity:1;stroke:none;stroke-width:0.27021;stroke-linecap:square;stroke-linejoin:bevel"
       d="m 75.380216,148.84139 v 0.89865 c 5.80728,-1.00472 -1.77363,13.56616 12.52796,15.39688 l -0.0746,-1.1982 c -9.13947,-1.36051 -1.80435,-13.76829 -9.69425,-15.09733 z"
       id="path2-8-80-9-0-8"
       sodipodi:nodetypes="cccccc" />
    <path
       style="fill:#14c8e1;fill-opacity:1;stroke:none;stroke-width:0.27021;stroke-linecap:square;stroke-linejoin:bevel"
       d="m 101.63439,148.90355 v 0.89865 c -5.807274,-1.00471 1.77364,13.56616 -12.527954,15.39688 l 0.0746,-1.1982 c 9.13947,-1.36051 1.80435,-13.76829 9.69425,-15.09733 z"
       id="path2-8-9-1-7-5-5"
       sodipodi:nodetypes="cccccc" />
    <text
       xml:space="preserve"
       style="font-style:normal;font-variant:normal;font-weight:bold;font-stretch:normal;font-size:11.0576px;font-family:'Noto Sans';-inkscape-font-specification:'Noto Sans, Bold';font-variant-ligatures:normal;font-variant-caps:normal;font-variant-numeric:normal;font-variant-east-asian:normal;fill:#14c8e1;fill-opacity:1;stroke:none;stroke-width:0.604368;stroke-linecap:square;stroke-linejoin:bevel;stroke-opacity:1"
       x="106.81405"
       y="152.45114"
       id="text3"
       transform="scale(0.92828447,1.077256)"><tspan
         sodipodi:role="line"
         id="tspan3"
         style="font-style:normal;font-variant:normal;font-weight:bold;font-stretch:normal;font-size:11.0576px;font-family:'Noto Sans';-inkscape-font-specification:'Noto Sans, Bold';font-variant-ligatures:normal;font-variant-caps:normal;font-variant-numeric:normal;font-variant-east-asian:normal;fill:#14c8e1;fill-opacity:1;stroke-width:0.60437"
         x="106.81405"
         y="152.45114">QuILL</tspan></text>
  </g>
</svg>
