<?xml version="1.0" encoding="UTF-8" standalone="no"?>
<!-- Created with Inkscape (http://www.inkscape.org/) -->

<svg
   width="78.799362mm"
   height="82.236832mm"
   viewBox="0 0 78.799362 82.236833"
   version="1.1"
   id="svg1"
   inkscape:version="1.3.2 (091e20e, 2023-11-25, custom)"
   sodipodi:docname="QuillHeaderLogo.svg"
   xmlns:inkscape="http://www.inkscape.org/namespaces/inkscape"
   xmlns:sodipodi="http://sodipodi.sourceforge.net/DTD/sodipodi-0.dtd"
   xmlns="http://www.w3.org/2000/svg"
   xmlns:svg="http://www.w3.org/2000/svg">
  <sodipodi:namedview
     id="namedview1"
     pagecolor="#ffffff"
     bordercolor="#666666"
     borderopacity="1.0"
     inkscape:showpageshadow="2"
     inkscape:pageopacity="0.0"
     inkscape:pagecheckerboard="0"
     inkscape:deskcolor="#d1d1d1"
     inkscape:document-units="mm"
     inkscape:zoom="0.66903058"
     inkscape:cx="360.2227"
     inkscape:cy="257.83575"
     inkscape:window-width="1920"
     inkscape:window-height="986"
     inkscape:window-x="-11"
     inkscape:window-y="-11"
     inkscape:window-maximized="1"
     inkscape:current-layer="layer1" />
  <defs
     id="defs1" />
  <g
     inkscape:label="Layer 1"
     inkscape:groupmode="layer"
     id="layer1"
     transform="translate(10.84792,-93.662547)">
    <path
       style="fill:#14c8e1;fill-opacity:1;stroke:none;stroke-width:0.0726082"
       d="m 36.207001,101.33397 -0.367732,-0.59965 c -2.65054,2.31265 -6.54498,7.92707 -5.670732,11.51568 l -2.022585,-2.95137 c -0.681739,0.67531 -0.883674,1.31637 -1.388299,2.10357 -1.031433,2.29351 -2.990779,6.86606 -2.199579,9.54471 l -1.891544,-2.05714 c -1.430499,2.42217 -2.875675,9.77289 -2.605038,11.42128 0.176782,1.07679 2.362374,5.09554 2.75934,6.08961 l -4.142057,-2.8155 c 0.01801,3.02253 -0.463206,5.2231 1.716833,7.88762 0.27793,0.30689 2.251323,3.65517 2.580997,3.904 l -3.727353,-1.48043 c 0.623181,2.87974 2.422102,7.83584 7.266067,9.31277 l 0.06063,-9.98458 0.431661,-6.35475 0.685791,-6.15177 0.878871,-3.30084 1.341837,-5.44256 0.968703,-2.84244 c -0.07383,0.48456 -0.292637,0.9668 -0.436164,1.44183 -0.295038,0.97503 -0.585634,1.9531 -0.823765,2.93873 -0.74801,3.09602 -1.172918,6.18627 -1.566492,9.31469 -0.394115,3.13262 -0.276429,6.30801 -0.414854,9.46454 -0.06183,1.41136 -0.06933,2.8717 0.03212,4.28197 0.07083,0.98357 -0.009,1.97538 0.06273,2.95802 0.07744,1.07604 -0.01201,2.15792 0.06633,3.23378 0.174082,2.41962 0.502705,9.52607 -0.457654,17.15983 -0.09875,0.78502 -0.157574,1.57291 -0.25662,2.35862 -0.04772,0.37973 -0.244014,0.85022 -0.187588,1.23113 0.02701,0.17177 0.202295,0.37315 0.270727,0.5443 0.250617,0.62748 0.564624,1.21396 0.814491,1.83976 l 0.07143,-0.0217 c 0.01801,-0.71797 0.336067,-1.41242 0.796002,-2.00781 0.199894,-0.25874 0.720217,-0.56564 0.771031,-0.87007 0.03001,-0.17954 -0.07413,-0.34994 -0.102648,-0.52386 -0.05733,-0.35032 -0.134463,-0.70125 -0.181585,-1.0547 -0.140466,-1.05645 -0.156973,-2.12432 -0.233509,-3.1853 -0.07624,-3.13526 -0.08794,-6.28291 0.02101,-9.41907 0.04892,-1.1122 0.08344,-2.28065 0.003,-3.39254 -0.03422,-0.47692 -0.126359,-1.02926 -0.06753,-1.50305 0.03962,-0.31816 0.582422,-0.41725 0.879231,-0.53237 2.422402,-0.93949 5.001628,-3.66703 5.060005,-4.84089 l -3.85068,1.21206 c 1.653053,-0.48403 5.289583,-4.93404 5.657855,-6.60452 0.308665,-1.39999 1.016245,-2.09984 0.925843,-4.97029 l -4.082028,1.25716 c 0.389792,-0.68945 3.803558,-3.83234 4.084219,-4.5632 -0.08434,-0.22085 -0.07774,-0.42887 1.270494,-10.64663 -1.204283,0.72952 -2.397371,0.95419 -3.713666,1.59469 0.798913,-0.9176 2.633461,-3.39671 3.38036,-4.34515 0.610186,-3.88835 -0.228707,2.09347 0.952376,-7.66059 l -2.757299,1.23449 c 0.716434,-2.14967 4.222974,-5.93275 5.002438,-8.39319 l -2.919735,0.78217 4.98329,-8.441579 c 0.886495,-1.797019 2.37402,-3.304854 2.420992,-5.340894 m -15.149313,24.682043 -0.325022,0.78657 0.325022,-0.78657"
       id="path1-9-7-7-0"
       sodipodi:nodetypes="ccccsccsccscccccccccsssssssssssccsscssssssccsccccccccccccccc" />
    <path
       style="fill:#14c8e1;fill-opacity:1;stroke:none;stroke-width:0.27021;stroke-linecap:square;stroke-linejoin:bevel"
       d="m -10.84792,107.33661 v 2.79137 c 17.4299895,-3.12085 -5.323379,42.13897 37.601461,47.82552 l -0.223905,-3.72183 C -0.9015995,150.00568 21.114054,111.46485 -2.566718,107.33661 Z"
       id="path2-8-80-9-0-8"
       sodipodi:nodetypes="cccccc" />
    <path
       style="fill:#14c8e1;fill-opacity:1;stroke:none;stroke-width:0.27021;stroke-linecap:square;stroke-linejoin:bevel"
       d="m 67.951445,107.52969 v 2.79137 c -17.429972,-3.12081 5.323409,42.13897 -37.601443,47.82552 l 0.223905,-3.72183 c 27.431235,-4.22599 5.415582,-42.76682 29.096354,-46.89506 z"
       id="path2-8-9-1-7-5-5"
       sodipodi:nodetypes="cccccc" />
  </g>
</svg>
