<?xml version="1.0" encoding="UTF-8" standalone="no"?>
<svg
   style="font-style:normal;font-weight:normal;font-size:12px;font-family:Dialog;color-interpolation:auto;fill:#000000;fill-opacity:1;stroke:#000000;stroke-width:1;stroke-linecap:square;stroke-linejoin:miter;stroke-miterlimit:10;stroke-dasharray:none;stroke-dashoffset:0;stroke-opacity:1;color-rendering:auto;image-rendering:auto;shape-rendering:auto;text-rendering:auto"
   width="1050"
   height="1050"
   version="1.1"
   id="svg72"
   sodipodi:docname="squeezingarcs.svg"
   inkscape:version="1.3.2 (091e20e, 2023-11-25, custom)"
   xmlns:inkscape="http://www.inkscape.org/namespaces/inkscape"
   xmlns:sodipodi="http://sodipodi.sourceforge.net/DTD/sodipodi-0.dtd"
   xmlns:xlink="http://www.w3.org/1999/xlink"
   xmlns="http://www.w3.org/2000/svg"
   xmlns:svg="http://www.w3.org/2000/svg">
  <sodipodi:namedview
     id="namedview72"
     pagecolor="#ffffff"
     bordercolor="#666666"
     borderopacity="1.0"
     inkscape:showpageshadow="2"
     inkscape:pageopacity="0.0"
     inkscape:pagecheckerboard="0"
     inkscape:deskcolor="#d1d1d1"
     inkscape:zoom="0.79287809"
     inkscape:cx="515.84223"
     inkscape:cy="462.24004"
     inkscape:window-width="1920"
     inkscape:window-height="986"
     inkscape:window-x="-11"
     inkscape:window-y="-11"
     inkscape:window-maximized="1"
     inkscape:current-layer="svg72" />
  <!--Generated by the Batik Graphics2D SVG Generator-->
  <defs
     id="genericDefs">
    <marker
       style="overflow:visible"
       id="DartArrow"
       refX="0"
       refY="0"
       orient="auto-start-reverse"
       inkscape:stockid="Dart arrow"
       markerWidth="2"
       markerHeight="2"
       viewBox="0 0 1 1"
       inkscape:isstock="true"
       inkscape:collect="always"
       preserveAspectRatio="xMidYMid">
      <path
         style="fill:context-stroke;fill-rule:evenodd;stroke:none"
         d="M 0,0 5,-5 -12.5,0 5,5 Z"
         transform="scale(-0.5)"
         id="path6" />
    </marker>
    <linearGradient
       id="linearGradient75"
       inkscape:collect="always">
      <stop
         style="stop-color:#00ff00;stop-opacity:1"
         offset="0"
         id="stop74" />
      <stop
         style="stop-color:#ffff00;stop-opacity:1"
         offset="0.55173826"
         id="stop76" />
      <stop
         style="stop-color:#d40000;stop-opacity:1"
         offset="1"
         id="stop75" />
    </linearGradient>
    <linearGradient
       id="linearGradient72"
       inkscape:collect="always">
      <stop
         style="stop-color:#00ff00;stop-opacity:1"
         offset="0"
         id="stop72" />
      <stop
         style="stop-color:#d40000;stop-opacity:1"
         offset="1"
         id="stop73" />
    </linearGradient>
    <defs
       id="defs1">
      <clipPath
         clipPathUnits="userSpaceOnUse"
         id="clipPath1">
        <path
           d="M 0,0 H 1047 V 516 H 0 Z"
           id="path1" />
      </clipPath>
    </defs>
    <linearGradient
       inkscape:collect="always"
       xlink:href="#linearGradient72"
       id="linearGradient73"
       x1="536.31873"
       y1="408.58282"
       x2="538.66333"
       y2="170.46613"
       gradientUnits="userSpaceOnUse" />
    <linearGradient
       inkscape:collect="always"
       xlink:href="#linearGradient75"
       id="linearGradient74"
       gradientUnits="userSpaceOnUse"
       x1="536.31873"
       y1="408.58282"
       x2="537.77148"
       y2="116.95676" />
    <marker
       inkscape:stockid="Arrow1Send"
       orient="auto"
       refY="0"
       refX="0"
       id="Arrow1Send"
       style="overflow:visible"
       inkscape:isstock="true"
       inkscape:collect="always">
      <path
         id="path5594"
         d="M 0,0 5,-5 -12.5,0 5,5 Z"
         style="fill:#aa0000;fill-opacity:1;fill-rule:evenodd;stroke:#aa0000;stroke-width:1pt;stroke-opacity:1"
         transform="matrix(-0.2,0,0,-0.2,-1.2,0)"
         inkscape:connector-curvature="0" />
    </marker>
    <marker
       inkscape:stockid="Arrow1Send"
       orient="auto"
       refY="0"
       refX="0"
       id="Arrow1Send-6-5"
       style="overflow:visible"
       inkscape:isstock="true">
      <path
         inkscape:connector-curvature="0"
         id="path5594-9-1"
         d="M 0,0 5,-5 -12.5,0 5,5 Z"
         style="fill:#ffcc00;fill-opacity:1;fill-rule:evenodd;stroke:#ffcc00;stroke-width:1pt;stroke-opacity:1"
         transform="matrix(-0.2,0,0,-0.2,-1.2,0)" />
    </marker>
    <marker
       inkscape:stockid="Arrow1Send"
       orient="auto"
       refY="0"
       refX="0"
       id="Arrow1Send-9-9"
       style="overflow:visible"
       inkscape:isstock="true">
      <path
         inkscape:connector-curvature="0"
         id="path5594-90-6"
         d="M 0,0 5,-5 -12.5,0 5,5 Z"
         style="fill:#ff0000;fill-opacity:1;fill-rule:evenodd;stroke:#ff0000;stroke-width:1pt;stroke-opacity:1"
         transform="matrix(-0.2,0,0,-0.2,-1.2,0)" />
    </marker>
    <marker
       inkscape:stockid="Arrow1Send"
       orient="auto"
       refY="0"
       refX="0"
       id="Arrow1Send-62-3"
       style="overflow:visible"
       inkscape:isstock="true">
      <path
         inkscape:connector-curvature="0"
         id="path5594-4-6"
         d="M 0,0 5,-5 -12.5,0 5,5 Z"
         style="fill:#ff0000;fill-opacity:1;fill-rule:evenodd;stroke:#ff0000;stroke-width:1pt;stroke-opacity:1"
         transform="matrix(-0.2,0,0,-0.2,-1.2,0)" />
    </marker>
    <marker
       inkscape:isstock="true"
       style="overflow:visible"
       id="marker7779-1"
       refX="0"
       refY="0"
       orient="auto"
       inkscape:stockid="Arrow1Lstart">
      <path
         inkscape:connector-curvature="0"
         transform="matrix(0.8,0,0,0.8,10,0)"
         style="fill:#000000;fill-opacity:1;fill-rule:evenodd;stroke:#000000;stroke-width:1pt;stroke-opacity:1"
         d="M 0,0 5,-5 -12.5,0 5,5 Z"
         id="path7781-6" />
    </marker>
    <marker
       inkscape:isstock="true"
       style="overflow:visible"
       id="marker7885-8"
       refX="0"
       refY="0"
       orient="auto"
       inkscape:stockid="Arrow1Lend"
       viewBox="0 0 17.773854 10.156488"
       markerWidth="17.773853"
       markerHeight="10.156488"
       preserveAspectRatio="xMidYMid">
      <path
         inkscape:connector-curvature="0"
         transform="matrix(-0.8,0,0,-0.8,-10,0)"
         style="fill:#000000;fill-opacity:1;fill-rule:evenodd;stroke:#000000;stroke-width:1pt;stroke-opacity:1"
         d="M 0,0 5,-5 -12.5,0 5,5 Z"
         id="path7887-7" />
    </marker>
    <marker
       inkscape:isstock="true"
       style="overflow:visible"
       id="marker7779-9-7"
       refX="0"
       refY="0"
       orient="auto"
       inkscape:stockid="Arrow1Lstart"
       viewBox="0 0 17.773854 10.156488"
       markerWidth="17.773853"
       markerHeight="10.156487"
       preserveAspectRatio="xMidYMid">
      <path
         inkscape:connector-curvature="0"
         transform="matrix(0.8,0,0,0.8,10,0)"
         style="fill:#000000;fill-opacity:1;fill-rule:evenodd;stroke:#000000;stroke-width:1pt;stroke-opacity:1"
         d="M 0,0 5,-5 -12.5,0 5,5 Z"
         id="path7781-7-8" />
    </marker>
    <marker
       inkscape:isstock="true"
       style="overflow:visible"
       id="marker7885-2-0"
       refX="0"
       refY="0"
       orient="auto"
       inkscape:stockid="Arrow1Lend"
       viewBox="0 0 17.773854 10.156488"
       markerWidth="17.773853"
       markerHeight="10.156487"
       preserveAspectRatio="xMidYMid">
      <path
         inkscape:connector-curvature="0"
         transform="matrix(-0.8,0,0,-0.8,-10,0)"
         style="fill:#000000;fill-opacity:1;fill-rule:evenodd;stroke:#000000;stroke-width:1pt;stroke-opacity:1"
         d="M 0,0 5,-5 -12.5,0 5,5 Z"
         id="path7887-6-2" />
    </marker>
  </defs>
  <rect
     style="fill:#000000;stroke:none;stroke-width:5.40213;stroke-miterlimit:10;stroke-dasharray:21.6085, 5.40213"
     id="rect76"
     width="1050"
     height="1050"
     x="0"
     y="0" />
  <g
     style="color-interpolation:linearRGB;fill:none;stroke:#ffffff;stroke-width:4;stroke-linejoin:round;color-rendering:optimizeQuality;image-rendering:optimizeQuality;text-rendering:geometricPrecision"
     id="g9"
     transform="translate(2,406.97784)">
    <line
       y2="419"
       style="fill:none;stroke:#ffffff"
       x1="136"
       x2="948"
       y1="419"
       id="line2" />
    <line
       y2="39"
       style="fill:none;stroke:#ffffff"
       x1="136"
       x2="948"
       y1="39"
       id="line3" />
    <line
       y2="410.88"
       style="fill:none;stroke:#ffffff"
       x1="136"
       x2="136"
       y1="419"
       id="line4" />
    <line
       y2="410.88"
       style="fill:none;stroke:#ffffff"
       x1="542"
       x2="542"
       y1="419"
       id="line5" />
    <line
       y2="410.88"
       style="fill:none;stroke:#ffffff"
       x1="948"
       x2="948"
       y1="419"
       id="line6" />
    <line
       y2="47.119999"
       style="fill:none;stroke:#ffffff"
       x1="136"
       x2="136"
       y1="39"
       id="line7" />
    <line
       y2="47.119999"
       style="fill:none;stroke:#ffffff"
       x1="542"
       x2="542"
       y1="39"
       id="line8" />
    <line
       y2="47.119999"
       style="fill:none;stroke:#ffffff"
       x1="948"
       x2="948"
       y1="39"
       id="line9" />
  </g>
  <g
     transform="translate(138,836.37784)"
     style="font-size:32px;font-family:SansSerif;color-interpolation:linearRGB;fill:#ffffff;stroke:#ffffff;color-rendering:optimizeQuality;image-rendering:optimizeQuality;text-rendering:geometricPrecision"
     id="g10">
    <path
       style="fill:#ffffff;stroke:#ffffff"
       d="m -7.6719,21.7031 q 0,-4.0625 0.836,-6.539 Q -6,12.6875 -4.3516,11.3438 -2.7031,10 -0.2031,10 q 1.8437,0 3.2343,0.7422 1.3907,0.7422 2.2969,2.1406 0.9063,1.3984 1.4219,3.4063 0.5156,2.0078 0.5156,5.414 0,4.0313 -0.8281,6.5078 -0.8281,2.4766 -2.4766,3.8282 -1.6484,1.3515 -4.164,1.3515 -3.3125,0 -5.2031,-2.375 -2.2657,-2.8594 -2.2657,-9.3125 z m 2.8907,0 q 0,5.6407 1.3203,7.5078 1.3203,1.8672 3.2578,1.8672 1.9375,0 3.2578,-1.875 1.3203,-1.875 1.3203,-7.5 0,-5.6562 -1.3203,-7.5156 -1.3203,-1.8594 -3.2891,-1.8594 -1.9375,0 -3.0937,1.6407 -1.4531,2.0937 -1.4531,7.7343 z"
       id="path9" />
  </g>
  <g
     transform="translate(534,868.97784)"
     style="font-size:32px;font-family:mwb_cmmi10;color-interpolation:linearRGB;fill:#ffffff;stroke:#ffffff;color-rendering:optimizeQuality;image-rendering:optimizeQuality;text-rendering:geometricPrecision"
     id="g11">
    <path
       style="fill:#ffffff;stroke:#ffffff"
       d="m 3.2344,-0.5469 q 0,-0.1719 0.125,-0.5156 Q 4.25,-2.9219 5.0234,-4.7109 5.7969,-6.5 6.4141,-8.1953 7.0312,-9.8906 7.5469,-11.8125 H 5.5 q -1.1719,0 -2.1875,0.7344 -1.0156,0.7343 -1.6875,1.8593 -0.0625,0.125 -0.1875,0.125 h -0.375 q -0.2969,0 -0.2969,-0.3124 0,-0.0626 0.0625,-0.1876 1.0469,-1.7812 2.2422,-2.9921 1.1953,-1.211 2.6953,-1.211 H 17.375 q 0.3281,0 0.5625,0.2188 0.2344,0.2187 0.2344,0.5937 0,0.4688 -0.336,0.8203 -0.3359,0.3516 -0.8047,0.3516 h -4.0781 q -0.5156,2.5156 -0.5625,4.9063 0,3.0781 1.0782,5.5624 0.0937,0.1876 0.0937,0.3907 0,0.3437 -0.2031,0.6406 -0.2032,0.2969 -0.5235,0.4844 -0.3203,0.1875 -0.6797,0.1875 -0.8437,0 -1.1562,-1.375 -0.3125,-1.375 -0.3125,-2.6719 0,-1.8281 0.3125,-3.5234 0.3125,-1.6953 1,-4.6016 H 8.5156 q -2.5312,10.25 -3.0468,11.2969 -0.4532,0.875 -1.25,0.875 -0.3907,0 -0.6876,-0.2578 -0.2968,-0.2578 -0.2968,-0.6485 z"
       id="path10" />
  </g>
  <g
     transform="translate(931,868.97784)"
     style="font-size:32px;font-family:SansSerif;color-interpolation:linearRGB;fill:#ffffff;stroke:#ffffff;color-rendering:optimizeQuality;image-rendering:optimizeQuality;text-rendering:geometricPrecision"
     id="g12">
    <path
       style="fill:#ffffff;stroke:#ffffff"
       d="M 16.1094,-2.7031 V 0 H 0.9688 Q 0.9375,-1.0156 1.2969,-1.9531 1.875,-3.5 3.1484,-5 q 1.2735,-1.5 3.6797,-3.4688 3.7344,-3.0624 5.0469,-4.8515 1.3125,-1.7891 1.3125,-3.3828 0,-1.6719 -1.1953,-2.8203 -1.1953,-1.1485 -3.1172,-1.1485 -2.0312,0 -3.25,1.2188 -1.2188,1.2187 -1.2344,3.375 L 1.5,-16.375 Q 1.7969,-19.6094 3.7344,-21.3047 5.6719,-23 8.9375,-23 q 3.2969,0 5.2187,1.8281 1.9219,1.8281 1.9219,4.5313 0,1.375 -0.5625,2.7031 -0.5625,1.3281 -1.8672,2.7969 -1.3046,1.4687 -4.3359,4.0312 -2.5313,2.125 -3.25,2.8828 -0.7187,0.7578 -1.1875,1.5235 z"
       id="path11" />
  </g>
  <g
     transform="translate(949,868.97784)"
     style="font-size:32px;font-family:mwb_cmmi10;color-interpolation:linearRGB;fill:#ffffff;stroke:#ffffff;color-rendering:optimizeQuality;image-rendering:optimizeQuality;text-rendering:geometricPrecision"
     id="g13">
    <path
       style="fill:#ffffff;stroke:#ffffff"
       d="m 3.2344,-0.5469 q 0,-0.1719 0.125,-0.5156 Q 4.25,-2.9219 5.0234,-4.7109 5.7969,-6.5 6.4141,-8.1953 7.0312,-9.8906 7.5469,-11.8125 H 5.5 q -1.1719,0 -2.1875,0.7344 -1.0156,0.7343 -1.6875,1.8593 -0.0625,0.125 -0.1875,0.125 h -0.375 q -0.2969,0 -0.2969,-0.3124 0,-0.0626 0.0625,-0.1876 1.0469,-1.7812 2.2422,-2.9921 1.1953,-1.211 2.6953,-1.211 H 17.375 q 0.3281,0 0.5625,0.2188 0.2344,0.2187 0.2344,0.5937 0,0.4688 -0.336,0.8203 -0.3359,0.3516 -0.8047,0.3516 h -4.0781 q -0.5156,2.5156 -0.5625,4.9063 0,3.0781 1.0782,5.5624 0.0937,0.1876 0.0937,0.3907 0,0.3437 -0.2031,0.6406 -0.2032,0.2969 -0.5235,0.4844 -0.3203,0.1875 -0.6797,0.1875 -0.8437,0 -1.1562,-1.375 -0.3125,-1.375 -0.3125,-2.6719 0,-1.8281 0.3125,-3.5234 0.3125,-1.6953 1,-4.6016 H 8.5156 q -2.5312,10.25 -3.0468,11.2969 -0.4532,0.875 -1.25,0.875 -0.3907,0 -0.6876,-0.2578 -0.2968,-0.2578 -0.2968,-0.6485 z"
       id="path12" />
  </g>
  <g
     transform="translate(544.0004,879.37784)"
     style="font-size:35.2px;font-family:SansSerif;color-interpolation:linearRGB;fill:#ffffff;stroke:#ffffff;color-rendering:optimizeQuality;image-rendering:optimizeQuality;text-rendering:geometricPrecision"
     id="g14">
    <path
       style="fill:#ffffff;stroke:#ffffff"
       d="M -89.2969,36 V 10.9531 h 9.4531 q 2.4844,0 3.8126,0.2344 1.8437,0.3125 3.0859,1.1719 1.2422,0.8594 2.0078,2.414 0.7656,1.5547 0.7656,3.4141 0,3.2031 -2.039,5.4141 -2.0391,2.2109 -7.3516,2.2109 h -6.4219 V 36 Z m 3.3125,-13.1406 H -79.5 q 3.2031,0 4.5547,-1.1953 1.3515,-1.1953 1.3515,-3.3672 0,-1.5781 -0.7968,-2.6953 -0.7969,-1.1172 -2.0938,-1.4766 -0.8281,-0.2188 -3.0937,-0.2188 h -6.4063 z M -66.2177,36 V 10.9531 h 3.0781 v 8.9844 q 2.1406,-2.5 5.4219,-2.5 2.0156,0 3.5078,0.7969 1.4922,0.7968 2.1328,2.1953 0.6406,1.3984 0.6406,4.0703 V 36 h -3.0781 V 24.5 q 0,-2.3125 -1,-3.3594 -1,-1.0468 -2.8281,-1.0468 -1.375,0 -2.5781,0.7031 -1.2032,0.7031 -1.711,1.9219 -0.5078,1.2187 -0.5078,3.3593 V 36 Z m 31.4133,-2.2344 q -1.7187,1.4532 -3.2968,2.0469 -1.5782,0.5937 -3.3907,0.5937 -2.9843,0 -4.5937,-1.4609 -1.6094,-1.4609 -1.6094,-3.7265 0,-1.3438 0.6094,-2.4454 0.6094,-1.1015 1.5859,-1.7656 0.9766,-0.664 2.211,-1.0078 0.9062,-0.2344 2.7343,-0.4531 3.7344,-0.4531 5.4844,-1.0625 0.0156,-0.6406 0.0156,-0.8125 0,-1.875 -0.8593,-2.6407 -1.1875,-1.0468 -3.5157,-1.0468 -2.1718,0 -3.2031,0.7578 -1.0312,0.7578 -1.5312,2.6953 l -3,-0.4063 q 0.4062,-1.9374 1.3437,-3.125 0.9375,-1.1874 2.7188,-1.8281 1.7812,-0.6406 4.125,-0.6406 2.3281,0 3.7734,0.5469 1.4453,0.5468 2.1328,1.375 0.6875,0.8281 0.9531,2.0937 0.1563,0.7969 0.1563,2.8438 v 4.0937 q 0,4.2969 0.1953,5.4297 0.1953,1.1328 0.7891,2.1797 h -3.2188 q -0.4844,-0.9531 -0.6094,-2.2344 z m -0.2656,-6.875 q -1.6719,0.6875 -5.0156,1.1563 -1.9063,0.2812 -2.6875,0.625 -0.7813,0.3437 -1.2109,1 -0.4297,0.6562 -0.4297,1.4531 0,1.2344 0.9297,2.0547 0.9296,0.8203 2.7265,0.8203 1.7813,0 3.1641,-0.7812 1.3828,-0.7813 2.039,-2.125 0.4844,-1.0469 0.4844,-3.0782 z m 6.7571,3.6875 3.0469,-0.4687 q 0.25,1.8281 1.4219,2.7968 1.1719,0.9688 3.2656,0.9688 2.125,0 3.1484,-0.8594 1.0235,-0.8594 1.0235,-2.0156 0,-1.0469 -0.9063,-1.6406 -0.625,-0.4219 -3.1406,-1.0469 -3.3906,-0.8594 -4.6953,-1.4844 -1.3047,-0.625 -1.9766,-1.7265 -0.6718,-1.1016 -0.6718,-2.4297 0,-1.2188 0.5546,-2.25 0.5547,-1.0313 1.5079,-1.7188 0.7187,-0.5312 1.9609,-0.8984 1.2422,-0.3672 2.6484,-0.3672 2.1407,0 3.7578,0.6172 1.6172,0.6172 2.3829,1.6641 0.7656,1.0468 1.0625,2.8124 l -3.0157,0.4063 q -0.2031,-1.3906 -1.1875,-2.1797 -0.9843,-0.789 -2.7656,-0.789 -2.125,0 -3.0312,0.7031 -0.9063,0.7031 -0.9063,1.6406 0,0.5937 0.375,1.0781 0.375,0.5 1.1875,0.8125 0.4531,0.1719 2.7031,0.7969 3.2657,0.8594 4.5625,1.4141 1.2969,0.5547 2.0313,1.6171 0.7344,1.0626 0.7344,2.6407 0,1.5312 -0.8985,2.8906 -0.8984,1.3594 -2.5937,2.1016 -1.6953,0.7421 -3.836,0.7421 -3.5312,0 -5.3828,-1.4687 -1.8515,-1.4687 -2.3672,-4.3594 z m 31.25,-0.4219 3.1719,0.3907 q -0.75,2.7812 -2.7812,4.3203 -2.0313,1.539 -5.2032,1.539 -3.9687,0 -6.3047,-2.4531 -2.3359,-2.4531 -2.3359,-6.875 0,-4.5781 2.3594,-7.1093 2.3594,-2.5313 6.125,-2.5313 3.6406,0 5.9453,2.4766 2.3047,2.4765 2.3047,6.9765 0,0.2813 -0.0156,0.8282 H -7.3441 q 0.1719,2.9843 1.6953,4.5703 1.5234,1.5859 3.8047,1.5859 1.6875,0 2.8828,-0.8828 1.1953,-0.8828 1.8984,-2.836 z M -7.1722,25.1875 H 2.9684 Q 2.7653,22.8906 1.8121,21.75 0.3434,19.9688 -2.0004,19.9688 q -2.125,0 -3.5703,1.4218 -1.4453,1.4219 -1.6015,3.7969 z m 32.9083,18.1719 q -2.5469,-3.2032 -4.3047,-7.5078 -1.7578,-4.3047 -1.7578,-8.9297 0,-4.0625 1.3125,-7.7969 1.5312,-4.3125 4.75,-8.6094 h 2.2031 q -2.0625,3.5625 -2.7344,5.0782 -1.0468,2.3593 -1.6406,4.9218 -0.7344,3.2032 -0.7344,6.4219 0,8.2187 5.1094,16.4219 z M 31.5319,36 V 17.8438 h 2.7813 v 2.7656 q 1.0468,-1.9375 1.9453,-2.5547 0.8984,-0.6172 1.9765,-0.6172 1.5625,0 3.1719,1 l -1.0625,2.8437 q -1.125,-0.6562 -2.2656,-0.6562 -1,0 -1.8047,0.6016 -0.8047,0.6015 -1.1484,1.6796 Q 34.61,24.5469 34.61,26.5 V 36 Z m 23.6084,-2.2344 q -1.7188,1.4532 -3.2969,2.0469 -1.5781,0.5937 -3.3906,0.5937 -2.9844,0 -4.5938,-1.4609 -1.6094,-1.4609 -1.6094,-3.7265 0,-1.3438 0.6094,-2.4454 0.6094,-1.1015 1.5859,-1.7656 0.9766,-0.664 2.211,-1.0078 0.9062,-0.2344 2.7344,-0.4531 3.7343,-0.4531 5.4843,-1.0625 0.0157,-0.6406 0.0157,-0.8125 0,-1.875 -0.8594,-2.6407 -1.1875,-1.0468 -3.5156,-1.0468 -2.1719,0 -3.2032,0.7578 -1.0312,0.7578 -1.5312,2.6953 l -3,-0.4063 q 0.4062,-1.9374 1.3437,-3.125 0.9375,-1.1874 2.7188,-1.8281 1.7812,-0.6406 4.125,-0.6406 2.3281,0 3.7734,0.5469 1.4453,0.5468 2.1328,1.375 0.6875,0.8281 0.9532,2.0937 0.1562,0.7969 0.1562,2.8438 v 4.0937 q 0,4.2969 0.1953,5.4297 0.1953,1.1328 0.7891,2.1797 h -3.2188 q -0.4843,-0.9531 -0.6093,-2.2344 z m -0.2657,-6.875 q -1.6718,0.6875 -5.0156,1.1563 -1.9062,0.2812 -2.6875,0.625 -0.7812,0.3437 -1.2109,1 -0.4297,0.6562 -0.4297,1.4531 0,1.2344 0.9297,2.0547 Q 47.3903,34 49.1871,34 q 1.7813,0 3.1641,-0.7812 1.3828,-0.7813 2.0391,-2.125 0.4843,-1.0469 0.4843,-3.0782 z M 74.6317,36 v -2.2969 q -1.7187,2.7031 -5.0781,2.7031 -2.1562,0 -3.9765,-1.1953 -1.8204,-1.1953 -2.8204,-3.3359 -1,-2.1406 -1,-4.9375 0,-2.7187 0.9063,-4.9297 0.9062,-2.2109 2.7109,-3.3906 1.8047,-1.1797 4.0547,-1.1797 1.6406,0 2.9219,0.6953 1.2812,0.6953 2.0781,1.8047 v -8.9844 h 3.0625 V 36 Z M 64.913,26.9375 q 0,3.4844 1.4687,5.2109 1.4688,1.7266 3.4688,1.7266 2.0156,0 3.4297,-1.6484 1.414,-1.6485 1.414,-5.0235 0,-3.7343 -1.4375,-5.4765 -1.4375,-1.7422 -3.5468,-1.7422 -2.0469,0 -3.4219,1.6797 -1.375,1.6797 -1.375,5.2734 z m 19.5384,16.4219 h -2.2032 q 5.1094,-8.2032 5.1094,-16.4219 0,-3.2031 -0.7344,-6.375 -0.5937,-2.5625 -1.625,-4.9219 -0.6718,-1.5312 -2.75,-5.125 h 2.2032 q 3.2031,4.2969 4.75,8.6094 1.3125,3.7344 1.3125,7.7969 0,4.625 -1.7657,8.9297 -1.7656,4.3046 -4.2968,7.5078 z"
       id="path13" />
  </g>
  <g
     style="color-interpolation:linearRGB;fill:none;stroke:#ffffff;stroke-width:4;stroke-linejoin:round;color-rendering:optimizeQuality;image-rendering:optimizeQuality;text-rendering:geometricPrecision"
     id="g65"
     transform="translate(2,406.97784)">
    <line
       y2="39"
       style="fill:none;stroke:#ffffff"
       x1="136"
       x2="136"
       y1="419"
       id="line14" />
    <line
       y2="39"
       style="fill:none;stroke:#ffffff"
       x1="948"
       x2="948"
       y1="419"
       id="line15" />
    <line
       y2="403.6427"
       style="fill:none;stroke:#ffffff"
       x1="136"
       x2="144.12"
       y1="403.6427"
       id="line16" />
    <line
       y2="245.1734"
       style="fill:none;stroke:#ffffff"
       x1="136"
       x2="144.12"
       y1="245.1734"
       id="line17" />
    <line
       y2="86.704002"
       style="fill:none;stroke:#ffffff"
       x1="136"
       x2="144.12"
       y1="86.704002"
       id="line18" />
    <line
       y2="403.6427"
       style="fill:none;stroke:#ffffff"
       x1="948"
       x2="939.88"
       y1="403.6427"
       id="line19" />
    <line
       y2="245.1734"
       style="fill:none;stroke:#ffffff"
       x1="948"
       x2="939.88"
       y1="245.1734"
       id="line20" />
    <line
       y2="86.704002"
       style="fill:none;stroke:#ffffff"
       x1="948"
       x2="939.88"
       y1="86.704002"
       id="line21" />
    <line
       y2="419"
       style="fill:none;stroke:#ffffff"
       x1="136"
       x2="140.06"
       y1="419"
       id="line22" />
    <line
       y2="410.89389"
       style="fill:none;stroke:#ffffff"
       x1="136"
       x2="140.06"
       y1="410.89389"
       id="line23" />
    <line
       y2="403.6427"
       style="fill:none;stroke:#ffffff"
       x1="136"
       x2="140.06"
       y1="403.6427"
       id="line24" />
    <line
       y2="355.93869"
       style="fill:none;stroke:#ffffff"
       x1="136"
       x2="140.06"
       y1="355.93869"
       id="line25" />
    <line
       y2="328.0336"
       style="fill:none;stroke:#ffffff"
       x1="136"
       x2="140.06"
       y1="328.0336"
       id="line26" />
    <line
       y2="308.23471"
       style="fill:none;stroke:#ffffff"
       x1="136"
       x2="140.06"
       y1="308.23471"
       id="line27" />
    <line
       y2="292.87741"
       style="fill:none;stroke:#ffffff"
       x1="136"
       x2="140.06"
       y1="292.87741"
       id="line28" />
    <line
       y2="280.32959"
       style="fill:none;stroke:#ffffff"
       x1="136"
       x2="140.06"
       y1="280.32959"
       id="line29" />
    <line
       y2="269.72061"
       style="fill:none;stroke:#ffffff"
       x1="136"
       x2="140.06"
       y1="269.72061"
       id="line30" />
    <line
       y2="260.53061"
       style="fill:none;stroke:#ffffff"
       x1="136"
       x2="140.06"
       y1="260.53061"
       id="line31" />
    <line
       y2="252.4245"
       style="fill:none;stroke:#ffffff"
       x1="136"
       x2="140.06"
       y1="252.4245"
       id="line32" />
    <line
       y2="245.1734"
       style="fill:none;stroke:#ffffff"
       x1="136"
       x2="140.06"
       y1="245.1734"
       id="line33" />
    <line
       y2="197.4693"
       style="fill:none;stroke:#ffffff"
       x1="136"
       x2="140.06"
       y1="197.4693"
       id="line34" />
    <line
       y2="169.5643"
       style="fill:none;stroke:#ffffff"
       x1="136"
       x2="140.06"
       y1="169.5643"
       id="line35" />
    <line
       y2="149.7653"
       style="fill:none;stroke:#ffffff"
       x1="136"
       x2="140.06"
       y1="149.7653"
       id="line36" />
    <line
       y2="134.4081"
       style="fill:none;stroke:#ffffff"
       x1="136"
       x2="140.06"
       y1="134.4081"
       id="line37" />
    <line
       y2="121.8602"
       style="fill:none;stroke:#ffffff"
       x1="136"
       x2="140.06"
       y1="121.8602"
       id="line38" />
    <line
       y2="111.2512"
       style="fill:none;stroke:#ffffff"
       x1="136"
       x2="140.06"
       y1="111.2512"
       id="line39" />
    <line
       y2="102.0613"
       style="fill:none;stroke:#ffffff"
       x1="136"
       x2="140.06"
       y1="102.0613"
       id="line40" />
    <line
       y2="93.9552"
       style="fill:none;stroke:#ffffff"
       x1="136"
       x2="140.06"
       y1="93.9552"
       id="line41" />
    <line
       y2="86.704002"
       style="fill:none;stroke:#ffffff"
       x1="136"
       x2="140.06"
       y1="86.704002"
       id="line42" />
    <line
       y2="39"
       style="fill:none;stroke:#ffffff"
       x1="136"
       x2="140.06"
       y1="39"
       id="line43" />
    <line
       y2="419"
       style="fill:none;stroke:#ffffff"
       x1="948"
       x2="943.94"
       y1="419"
       id="line44" />
    <line
       y2="410.89389"
       style="fill:none;stroke:#ffffff"
       x1="948"
       x2="943.94"
       y1="410.89389"
       id="line45" />
    <line
       y2="403.6427"
       style="fill:none;stroke:#ffffff"
       x1="948"
       x2="943.94"
       y1="403.6427"
       id="line46" />
    <line
       y2="355.93869"
       style="fill:none;stroke:#ffffff"
       x1="948"
       x2="943.94"
       y1="355.93869"
       id="line47" />
    <line
       y2="328.0336"
       style="fill:none;stroke:#ffffff"
       x1="948"
       x2="943.94"
       y1="328.0336"
       id="line48" />
    <line
       y2="308.23471"
       style="fill:none;stroke:#ffffff"
       x1="948"
       x2="943.94"
       y1="308.23471"
       id="line49" />
    <line
       y2="292.87741"
       style="fill:none;stroke:#ffffff"
       x1="948"
       x2="943.94"
       y1="292.87741"
       id="line50" />
    <line
       y2="280.32959"
       style="fill:none;stroke:#ffffff"
       x1="948"
       x2="943.94"
       y1="280.32959"
       id="line51" />
    <line
       y2="269.72061"
       style="fill:none;stroke:#ffffff"
       x1="948"
       x2="943.94"
       y1="269.72061"
       id="line52" />
    <line
       y2="260.53061"
       style="fill:none;stroke:#ffffff"
       x1="948"
       x2="943.94"
       y1="260.53061"
       id="line53" />
    <line
       y2="252.4245"
       style="fill:none;stroke:#ffffff"
       x1="948"
       x2="943.94"
       y1="252.4245"
       id="line54" />
    <line
       y2="245.1734"
       style="fill:none;stroke:#ffffff"
       x1="948"
       x2="943.94"
       y1="245.1734"
       id="line55" />
    <line
       y2="197.4693"
       style="fill:none;stroke:#ffffff"
       x1="948"
       x2="943.94"
       y1="197.4693"
       id="line56" />
    <line
       y2="169.5643"
       style="fill:none;stroke:#ffffff"
       x1="948"
       x2="943.94"
       y1="169.5643"
       id="line57" />
    <line
       y2="149.7653"
       style="fill:none;stroke:#ffffff"
       x1="948"
       x2="943.94"
       y1="149.7653"
       id="line58" />
    <line
       y2="134.4081"
       style="fill:none;stroke:#ffffff"
       x1="948"
       x2="943.94"
       y1="134.4081"
       id="line59" />
    <line
       y2="121.8602"
       style="fill:none;stroke:#ffffff"
       x1="948"
       x2="943.94"
       y1="121.8602"
       id="line60" />
    <line
       y2="111.2512"
       style="fill:none;stroke:#ffffff"
       x1="948"
       x2="943.94"
       y1="111.2512"
       id="line61" />
    <line
       y2="102.0613"
       style="fill:none;stroke:#ffffff"
       x1="948"
       x2="943.94"
       y1="102.0613"
       id="line62" />
    <line
       y2="93.9552"
       style="fill:none;stroke:#ffffff"
       x1="948"
       x2="943.94"
       y1="93.9552"
       id="line63" />
    <line
       y2="86.704002"
       style="fill:none;stroke:#ffffff"
       x1="948"
       x2="943.94"
       y1="86.704002"
       id="line64" />
    <line
       y2="39"
       style="fill:none;stroke:#ffffff"
       x1="948"
       x2="943.94"
       y1="39"
       id="line65" />
  </g>
  <g
     transform="translate(127.6,810.62054)"
     style="font-size:32px;font-family:SansSerif;color-interpolation:linearRGB;fill:#ffffff;stroke:#ffffff;color-rendering:optimizeQuality;image-rendering:optimizeQuality;text-rendering:geometricPrecision"
     id="g66">
    <path
       style="fill:#ffffff;stroke:#ffffff"
       d="m -43.6719,1.2031 q 0,-4.0625 0.836,-6.539 0.8359,-2.4766 2.4843,-3.8203 1.6485,-1.3438 4.1485,-1.3438 1.8437,0 3.2343,0.7422 1.3907,0.7422 2.2969,2.1406 0.9063,1.3984 1.4219,3.4063 0.5156,2.0078 0.5156,5.414 0,4.0313 -0.8281,6.5078 -0.8281,2.4766 -2.4766,3.8282 -1.6484,1.3515 -4.164,1.3515 -3.3125,0 -5.2031,-2.375 -2.2657,-2.8594 -2.2657,-9.3125 z m 2.8907,0 q 0,5.6407 1.3203,7.5078 1.3203,1.8672 3.2578,1.8672 1.9375,0 3.2578,-1.875 1.3203,-1.875 1.3203,-7.5 0,-5.6562 -1.3203,-7.5156 -1.3203,-1.8594 -3.2891,-1.8594 -1.9375,0 -3.0937,1.6407 -1.4531,2.0937 -1.4531,7.7343 z M -24.2969,12.5 V 9.2969 h 3.2031 V 12.5 Z m 17.9063,0 H -9.2031 V -5.4219 q -1.0157,0.9688 -2.6641,1.9375 -1.6484,0.9688 -2.9609,1.4532 V -4.75 q 2.3593,-1.1094 4.125,-2.6875 1.7656,-1.5781 2.5,-3.0625 h 1.8125 z"
       id="path65" />
  </g>
  <g
     transform="translate(127.6,652.15124)"
     style="font-size:32px;font-family:SansSerif;color-interpolation:linearRGB;fill:#ffffff;stroke:#ffffff;color-rendering:optimizeQuality;image-rendering:optimizeQuality;text-rendering:geometricPrecision"
     id="g67">
    <path
       style="fill:#ffffff;stroke:#ffffff"
       d="M -6.0781,12.5 H -8.8906 V -5.4219 q -1.0156,0.9688 -2.6641,1.9375 -1.6484,0.9688 -2.9609,1.4532 V -4.75 q 2.3594,-1.1094 4.125,-2.6875 1.7656,-1.5781 2.5,-3.0625 h 1.8125 z"
       id="path66" />
  </g>
  <g
     transform="translate(127.6,493.68184)"
     style="font-size:32px;font-family:SansSerif;color-interpolation:linearRGB;fill:#ffffff;stroke:#ffffff;color-rendering:optimizeQuality;image-rendering:optimizeQuality;text-rendering:geometricPrecision"
     id="g68">
    <path
       style="fill:#ffffff;stroke:#ffffff"
       d="m -24.0781,12.5 h -2.8125 V -5.4219 q -1.0156,0.9688 -2.6641,1.9375 -1.6484,0.9688 -2.9609,1.4532 V -4.75 q 2.3594,-1.1094 4.125,-2.6875 1.7656,-1.5781 2.5,-3.0625 h 1.8125 z M -16.875,1.2031 q 0,-4.0625 0.8359,-6.539 0.836,-2.4766 2.4844,-3.8203 1.6485,-1.3438 4.1485,-1.3438 1.8437,0 3.2343,0.7422 1.3907,0.7422 2.2969,2.1406 0.9062,1.3984 1.4219,3.4063 0.5156,2.0078 0.5156,5.414 0,4.0313 -0.8281,6.5078 -0.8282,2.4766 -2.4766,3.8282 -1.6484,1.3515 -4.164,1.3515 -3.3126,0 -5.2032,-2.375 -2.2656,-2.8594 -2.2656,-9.3125 z m 2.8906,0 q 0,5.6407 1.3203,7.5078 1.3203,1.8672 3.2579,1.8672 1.9374,0 3.2578,-1.875 1.3203,-1.875 1.3203,-7.5 0,-5.6562 -1.3203,-7.5156 -1.3204,-1.8594 -3.2891,-1.8594 -1.9375,0 -3.0937,1.6407 -1.4532,2.0937 -1.4532,7.7343 z"
       id="path67" />
  </g>
  <g
     transform="rotate(-90,356.28882,279.68882)"
     style="font-size:35.2px;font-family:SansSerif;color-interpolation:linearRGB;fill:#ffffff;stroke:#ffffff;color-rendering:optimizeQuality;image-rendering:optimizeQuality;text-rendering:geometricPrecision"
     id="g69">
    <path
       style="fill:#ffffff;stroke:#ffffff"
       d="m -138.8125,-10.6875 q 2.3125,1.5937 4.25,2.3281 l -0.9687,2.3125 q -2.7032,-0.9843 -5.3907,-3.0781 -2.7812,1.5469 -6.1406,1.5469 -3.4063,0 -6.1719,-1.6407 -2.7656,-1.6406 -4.2656,-4.6093 -1.5,-2.9688 -1.5,-6.7031 0,-3.7032 1.5078,-6.7422 1.5078,-3.0391 4.2813,-4.6328 2.7734,-1.5938 6.2109,-1.5938 3.4688,0 6.2578,1.6484 2.7891,1.6485 4.25,4.6172 1.461,2.9688 1.461,6.6875 0,3.0938 -0.9454,5.5625 -0.9453,2.4688 -2.8359,4.2969 z m -7.2969,-4.2344 q 2.875,0.7969 4.7344,2.3907 2.9219,-2.6563 2.9219,-8.0157 0,-3.0469 -1.0313,-5.3125 -1.0312,-2.2656 -3.0234,-3.5234 -1.9922,-1.2578 -4.4766,-1.2578 -3.7031,0 -6.1484,2.539 -2.4453,2.5391 -2.4453,7.5704 0,4.8906 2.4219,7.5078 2.4218,2.6172 6.1718,2.6172 1.7813,0 3.3594,-0.6719 -1.5625,-1 -3.2812,-1.4375 z M -118.9269,-8 v -2.6719 q -2.125,3.0781 -5.7656,3.0781 -1.5938,0 -2.9922,-0.6171 -1.3985,-0.6172 -2.0703,-1.5469 -0.6719,-0.9297 -0.9532,-2.2734 -0.1875,-0.9063 -0.1875,-2.875 v -11.25 h 3.0782 v 10.0781 q 0,2.4062 0.1875,3.2343 0.2968,1.2188 1.2343,1.9141 0.9375,0.6953 2.3282,0.6953 1.375,0 2.5937,-0.7109 1.2188,-0.7109 1.7188,-1.9297 0.5,-1.2188 0.5,-3.5469 v -9.7343 h 3.0781 V -8 Z m 19.5227,-2.2344 q -1.7187,1.4532 -3.2968,2.0469 -1.5782,0.5937 -3.3907,0.5937 -2.9843,0 -4.5937,-1.4609 -1.6094,-1.4609 -1.6094,-3.7265 0,-1.3438 0.6094,-2.4454 0.6094,-1.1015 1.5859,-1.7656 0.9766,-0.664 2.211,-1.0078 0.9062,-0.2344 2.7343,-0.4531 3.7344,-0.4531 5.4844,-1.0625 0.0156,-0.6406 0.0156,-0.8125 0,-1.875 -0.8593,-2.6407 -1.1875,-1.0468 -3.5157,-1.0468 -2.1718,0 -3.2031,0.7578 -1.0312,0.7578 -1.5312,2.6953 l -3,-0.4063 q 0.4062,-1.9374 1.3437,-3.125 0.9375,-1.1874 2.7188,-1.8281 1.7812,-0.6406 4.125,-0.6406 2.3281,0 3.7734,0.5469 1.4453,0.5468 2.1328,1.375 0.6875,0.8281 0.9531,2.0937 0.1563,0.7969 0.1563,2.8438 v 4.0937 q 0,4.2969 0.1953,5.4297 0.1953,1.1328 0.7891,2.1797 h -3.2188 q -0.4844,-0.9531 -0.6094,-2.2344 z m -0.2656,-6.875 q -1.6719,0.6875 -5.0156,1.1563 -1.9063,0.2812 -2.6875,0.625 -0.7813,0.3437 -1.211,1 -0.4296,0.6562 -0.4296,1.4531 0,1.2344 0.9296,2.0547 0.9297,0.8203 2.7266,0.8203 1.7813,0 3.1641,-0.7812 1.3828,-0.7813 2.039,-2.125 0.4844,-1.0469 0.4844,-3.0782 z M -91.6783,-8 v -18.1562 h 2.7656 v 2.5937 q 2,-3 5.7813,-3 1.6406,0 3.0156,0.5937 1.375,0.5938 2.0547,1.5469 0.6797,0.9531 0.9609,2.2657 0.1719,0.8593 0.1719,3 V -8 h -3.0781 v -11.0469 q 0,-1.875 -0.3594,-2.8047 -0.3594,-0.9296 -1.2735,-1.4843 -0.914,-0.5547 -2.1484,-0.5547 -1.9687,0 -3.3906,1.2422 -1.4219,1.2422 -1.4219,4.7422 V -8 Z m 26.2883,-2.75 0.4375,2.7188 q -1.2968,0.2656 -2.3281,0.2656 -1.6719,0 -2.5937,-0.5313 -0.9219,-0.5312 -1.2969,-1.3906 -0.375,-0.8594 -0.375,-3.625 V -23.75 h -2.2656 v -2.4062 h 2.2656 v -4.4844 l 3.0625,-1.8438 v 6.3282 h 3.0937 v 2.4062 h -3.0937 v 10.6094 q 0,1.3125 0.1562,1.6875 0.1563,0.375 0.5235,0.6015 0.3672,0.2266 1.0547,0.2266 0.5156,0 1.3593,-0.125 z M -50.4419,-8 v -2.6719 q -2.125,3.0781 -5.7656,3.0781 -1.5937,0 -2.9922,-0.6171 -1.3984,-0.6172 -2.0703,-1.5469 -0.6719,-0.9297 -0.9531,-2.2734 -0.1875,-0.9063 -0.1875,-2.875 v -11.25 h 3.0781 v 10.0781 q 0,2.4062 0.1875,3.2343 0.2969,1.2188 1.2344,1.9141 0.9375,0.6953 2.3281,0.6953 1.375,0 2.5938,-0.7109 1.2187,-0.7109 1.7187,-1.9297 0.5,-1.2188 0.5,-3.5469 v -9.7343 h 3.0781 V -8 Z m 7.679,0 v -18.1562 h 2.75 v 2.5468 q 0.8438,-1.3281 2.2656,-2.1406 1.4219,-0.8125 3.2344,-0.8125 2.0156,0 3.3047,0.8359 1.2891,0.836 1.8203,2.3516 2.1563,-3.1875 5.6094,-3.1875 2.7031,0 4.1562,1.5 1.4532,1.5 1.4532,4.6094 V -8 h -3.0625 v -11.4375 q 0,-1.8437 -0.2969,-2.6563 -0.2969,-0.8124 -1.0859,-1.3046 -0.7891,-0.4922 -1.8516,-0.4922 -1.9063,0 -3.1719,1.2734 -1.2656,1.2734 -1.2656,4.0703 V -8 h -3.0781 v -11.7969 q 0,-2.0469 -0.75,-3.0703 -0.75,-1.0234 -2.4688,-1.0234 -1.2969,0 -2.3984,0.6797 -1.1016,0.6797 -1.5938,2 -0.4922,1.3203 -0.4922,3.789 V -8 Z m 39.0877,0 v -18.1562 h 2.7656 v 2.5937 q 2,-3 5.7813,-3 1.6406,0 3.0156,0.5937 1.375,0.5938 2.0547,1.5469 0.6797,0.9531 0.9609,2.2657 0.1719,0.8593 0.1719,3 V -8 H 7.9967 v -11.0469 q 0,-1.875 -0.3594,-2.8047 -0.3594,-0.9296 -1.2734,-1.4843 -0.9141,-0.5547 -2.1485,-0.5547 -1.9687,0 -3.3906,1.2422 -1.4219,1.2422 -1.4219,4.7422 V -8 Z m 18.4134,-9.0781 q 0,-5.0313 2.8125,-7.4688 2.3437,-2.0156 5.7031,-2.0156 3.75,0 6.125,2.4531 2.375,2.4532 2.375,6.7813 0,3.5 -1.0547,5.5078 -1.0547,2.0078 -3.0625,3.1172 -2.0078,1.1093 -4.3828,1.1093 -3.8125,0 -6.1641,-2.4453 -2.3515,-2.4453 -2.3515,-7.039 z m 3.1718,0 q 0,3.4843 1.5157,5.2187 1.5156,1.7344 3.8281,1.7344 2.2969,0 3.8125,-1.7422 1.5156,-1.7422 1.5156,-5.3047 0,-3.375 -1.5234,-5.1093 -1.5235,-1.7344 -3.8047,-1.7344 -2.3125,0 -3.8281,1.7265 -1.5157,1.7266 -1.5157,5.211 z m 17.5696,-12.4375 v -3.5313 h 3.0782 v 3.5313 z m 0,21.5156 v -18.1562 h 3.0782 V -8 Z m 6.5676,-5.4219 3.0469,-0.4687 q 0.25,1.8281 1.4218,2.7968 1.1719,0.9688 3.2657,0.9688 2.125,0 3.1484,-0.8594 1.0234,-0.8594 1.0234,-2.0156 0,-1.0469 -0.9062,-1.6406 -0.625,-0.4219 -3.1406,-1.0469 -3.3907,-0.8594 -4.6954,-1.4844 -1.3046,-0.625 -1.9765,-1.7265 -0.6719,-1.1016 -0.6719,-2.4297 0,-1.2188 0.5547,-2.25 0.5547,-1.0313 1.5078,-1.7188 0.7188,-0.5312 1.9609,-0.8984 1.2422,-0.3672 2.6485,-0.3672 2.1406,0 3.7578,0.6172 1.6172,0.6172 2.3828,1.6641 0.7656,1.0468 1.0625,2.8124 l -3.0156,0.4063 q -0.2031,-1.3906 -1.1875,-2.1797 -0.9844,-0.789 -2.7656,-0.789 -2.125,0 -3.0313,0.7031 -0.9062,0.7031 -0.9062,1.6406 0,0.5937 0.375,1.0781 0.375,0.5 1.1875,0.8125 0.4531,0.1719 2.7031,0.7969 3.2656,0.8594 4.5625,1.4141 1.2969,0.5547 2.0312,1.6171 0.7344,1.0626 0.7344,2.6407 0,1.5312 -0.8984,2.8906 -0.8985,1.3594 -2.5938,2.1016 -1.6953,0.7421 -3.8359,0.7421 -3.5313,0 -5.3828,-1.4687 -1.8516,-1.4687 -2.3672,-4.3594 z m 31.25,-0.4219 3.1719,0.3907 q -0.75,2.7812 -2.7813,4.3203 -2.0312,1.539 -5.2031,1.539 -3.9688,0 -6.3047,-2.4531 -2.3359,-2.4531 -2.3359,-6.875 0,-4.5781 2.3593,-7.1093 2.3594,-2.5313 6.125,-2.5313 3.6407,0 5.9453,2.4766 2.3047,2.4765 2.3047,6.9765 0,0.2813 -0.0156,0.8282 H 63.0159 q 0.1719,2.9843 1.6953,4.5703 1.5235,1.5859 3.8047,1.5859 1.6875,0 2.8828,-0.8828 1.1954,-0.8828 1.8985,-2.836 z m -10.1094,-4.9687 h 10.1406 q -0.2031,-2.2969 -1.1562,-3.4375 -1.4688,-1.7812 -3.8125,-1.7812 -2.125,0 -3.5703,1.4218 -1.4453,1.4219 -1.6016,3.7969 z M 90.143,-8 v -25.0469 h 3.0781 V -8 Z m 20.3175,-5.8438 3.1719,0.3907 q -0.75,2.7812 -2.7812,4.3203 -2.0313,1.539 -5.2032,1.539 -3.9687,0 -6.3046,-2.4531 -2.336,-2.4531 -2.336,-6.875 0,-4.5781 2.3594,-7.1093 2.3594,-2.5313 6.125,-2.5313 3.6406,0 5.9453,2.4766 2.3047,2.4765 2.3047,6.9765 0,0.2813 -0.0156,0.8282 h -13.5469 q 0.1719,2.9843 1.6953,4.5703 1.5234,1.5859 3.8047,1.5859 1.6875,0 2.8828,-0.8828 1.1953,-0.8828 1.8984,-2.836 z m -10.1093,-4.9687 h 10.1406 q -0.2031,-2.2969 -1.1563,-3.4375 -1.4687,-1.7812 -3.8125,-1.7812 -2.125,0 -3.5703,1.4218 -1.4453,1.4219 -1.6015,3.7969 z M 122.6395,-8 115.7333,-26.1562 h 3.25 l 3.9062,10.875 q 0.625,1.7656 1.1563,3.6562 0.4062,-1.4375 1.1406,-3.4531 l 4.0313,-11.0781 h 3.1718 L 125.5145,-8 Z m 24.9844,-5.8438 3.1719,0.3907 q -0.75,2.7812 -2.7813,4.3203 -2.0312,1.539 -5.2031,1.539 -3.9687,0 -6.3047,-2.4531 -2.3359,-2.4531 -2.3359,-6.875 0,-4.5781 2.3594,-7.1093 2.3593,-2.5313 6.125,-2.5313 3.6406,0 5.9453,2.4766 2.3047,2.4765 2.3047,6.9765 0,0.2813 -0.0157,0.8282 h -13.5468 q 0.1718,2.9843 1.6953,4.5703 1.5234,1.5859 3.8047,1.5859 1.6875,0 2.8828,-0.8828 1.1953,-0.8828 1.8984,-2.836 z m -10.1094,-4.9687 h 10.1407 q -0.2032,-2.2969 -1.1563,-3.4375 -1.4687,-1.7812 -3.8125,-1.7812 -2.125,0 -3.5703,1.4218 -1.4453,1.4219 -1.6016,3.7969 z M 154.6935,-8 v -25.0469 h 3.0781 V -8 Z"
       id="path68" />
  </g>
  <g
     style="color-interpolation:linearRGB;fill:none;stroke:url(#linearGradient73);stroke-width:6;stroke-linecap:butt;stroke-linejoin:round;color-rendering:optimizeQuality;image-rendering:optimizeQuality;text-rendering:geometricPrecision"
     id="g70"
     transform="translate(2,406.97784)">
    <path
       d="m 136.812,55.0129 0.812,0.0081 0.812,0.0134 0.812,0.019 0.812,0.0243 0.812,0.0297 0.812,0.0351 0.812,0.0405 0.812,0.046 0.812,0.0513 0.812,0.0568 0.812,0.0622 0.812,0.0676 0.812,0.0731 0.812,0.0785 0.812,0.084 0.812,0.0894 0.812,0.0948 0.812,0.1004 0.812,0.1058 0.812,0.1113 0.812,0.1168 0.812,0.1223 0.812,0.1278 0.812,0.1333 0.812,0.1389 0.812,0.1444 0.812,0.1499 0.812,0.1556 0.812,0.1611 0.812,0.1667 0.812,0.1723 0.812,0.1779 0.812,0.1836 0.812,0.1892 0.812,0.1948 0.812,0.2006 0.812,0.2062 0.812,0.212 0.812,0.2177 0.812,0.2234 0.812,0.2292 0.812,0.235 0.812,0.2408 0.812,0.2466 0.812,0.2525 0.812,0.2583 0.812,0.2643 0.812,0.2701 0.812,0.2761 0.812,0.282 0.812,0.288 0.812,0.294 0.812,0.3001 0.812,0.3061 0.812,0.3122 0.812,0.3183 0.812,0.3245 0.812,0.3306 0.812,0.3368 0.812,0.343 0.812,0.3493 0.812,0.3556 0.812,0.3619 0.812,0.3683 0.812,0.3746 0.812,0.3811 0.812,0.3875 0.812,0.3941 0.812,0.4005 0.812,0.4071 0.812,0.4138 0.812,0.4203 0.812,0.4271 0.812,0.4338 0.812,0.4406 0.812,0.4473 0.812,0.4543 0.812,0.4611 0.812,0.468 0.812,0.4751 0.812,0.4821 0.812,0.4892 0.812,0.4963 0.812,0.5035 0.812,0.5108 0.812,0.518 0.812,0.5254 0.812,0.5328 0.812,0.5402 0.812,0.5478 0.812,0.5554 0.812,0.563 0.812,0.5706 0.812,0.5785 0.812,0.5862 0.812,0.5942 0.812,0.6021 0.812,0.6102 0.812,0.6182 0.812,0.6264 0.812,0.6346 0.812,0.643 0.812,0.6514 0.812,0.6598 0.812,0.6684 0.812,0.677 0.812,0.6857 0.812,0.6946 0.812,0.7034 0.812,0.7124 0.812,0.7214 0.812,0.7307 0.812,0.7399 0.812,0.7492 0.812,0.7587 0.812,0.7683 0.812,0.7779 0.812,0.7877 0.812,0.7976 0.812,0.8075 0.812,0.8177 0.812,0.8279 0.812,0.8383 0.812,0.8487 0.812,0.8593 0.812,0.8701 0.812,0.8809 0.812,0.8919 0.812,0.903 0.812,0.9144 0.812,0.9257 0.812,0.9373 0.812,0.9491 0.812,0.9609 0.812,0.973 0.812,0.9852 0.812,0.9976 0.812,1.0102 0.812,1.0229 0.812,1.0358 0.812,1.0489 0.812,1.0623 0.812,1.0758 0.812,1.0895 0.812,1.1034 0.812,1.1176 0.812,1.1319 0.812,1.1466 0.812,1.1613 0.812,1.1765 0.812,1.1918 0.812,1.2073 0.812,1.2233 0.812,1.2393 0.812,1.2558 0.812,1.2725 0.812,1.2894 0.812,1.3068 0.812,1.3244 0.812,1.3423 0.812,1.3606 0.812,1.3792 0.812,1.3983 0.812,1.4175 0.812,1.4374 0.812,1.4575 0.812,1.478 0.812,1.499 0.812,1.5204 0.812,1.5423 0.812,1.5645 0.812,1.5874 0.812,1.6107 0.812,1.6346 0.812,1.6589 0.812,1.6838 0.812,1.7093 0.812,1.7355 0.812,1.7621 0.812,1.7895 0.812,1.8175 0.812,1.8462 0.812,1.8757 0.812,1.9058 0.812,1.9369 0.812,1.9685 0.812,2.0012 0.812,2.0347 0.812,2.0691 0.812,2.1044 0.812,2.1408 0.812,2.1781 0.812,2.2165 0.812,2.2561 0.812,2.2968 0.812,2.3387 0.812,2.3819 0.812,2.4265 0.812,2.4723 0.812,2.5197 0.812,2.5686 0.812,2.6189 0.812,2.6711 0.812,2.7248 0.812,2.7804 0.812,2.8378 0.812,2.8972 0.812,2.9587 0.812,3.0222 0.812,3.088 0.812,3.1561 0.812,3.2265 0.812,3.2995 0.812,3.375 0.812,3.4531 0.812,3.5341 0.812,3.6177 0.812,3.7043 0.812,3.7937 0.812,3.886 0.812,3.9812 0.812,4.0792 0.812,4.18 0.812,4.2831 0.812,4.3886 0.812,4.4957 0.812,4.6042 0.812,4.7131 0.812,4.8216 0.812,4.9282 0.812,5.0312 0.812,5.1288 0.812,5.2178 0.812,5.295 0.812,5.3562 0.812,5.3959 0.812,5.4078 0.812,5.3844 0.812,5.3168 0.812,5.195 0.812,5.0082 0.812,4.7457 0.812,4.3971 0.812,3.9548 0.812,3.4147 0.812,2.7788 0.812,2.0562 0.812,1.264 0.812,0.4265 0.812,-0.4265 0.812,-1.264 0.812,-2.0562 0.812,-2.7788 0.812,-3.4147 0.812,-3.9548 0.812,-4.3971 0.812,-4.7457 0.812,-5.0082 0.812,-5.195 0.812,-5.3168 0.812,-5.3844 0.812,-5.4078 0.812,-5.3959 0.812,-5.3562 0.812,-5.295 0.812,-5.2178 0.812,-5.1288 0.812,-5.0312 0.812,-4.9282 0.812,-4.8216 0.812,-4.7131 0.812,-4.6042 0.812,-4.4957 0.812,-4.3886 0.812,-4.2831 0.812,-4.18 0.812,-4.0792 0.812,-3.9812 0.812,-3.886 0.812,-3.7937 0.812,-3.7043 0.812,-3.6177 0.812,-3.5341 0.812,-3.4531 0.812,-3.375 0.812,-3.2995 0.812,-3.2265 0.812,-3.1561 0.812,-3.088 0.812,-3.0222 0.812,-2.9587 0.812,-2.8972 0.812,-2.8378 0.812,-2.7804 0.812,-2.7248 0.812,-2.6711 0.812,-2.6189 0.812,-2.5686 0.812,-2.5197 0.812,-2.4723 0.812,-2.4265 0.812,-2.3819 0.812,-2.3387 0.812,-2.2968 0.812,-2.2561 0.812,-2.2165 0.812,-2.1781 0.812,-2.1408 0.812,-2.1044 0.812,-2.0691 0.812,-2.0347 0.812,-2.0012 0.812,-1.9685 0.812,-1.9369 0.812,-1.9058 0.812,-1.8757 0.812,-1.8462 0.812,-1.8175 0.812,-1.7895 0.812,-1.7621 0.812,-1.7355 0.812,-1.7093 0.812,-1.6838 0.812,-1.6589 0.812,-1.6346 0.812,-1.6107 0.812,-1.5874 0.812,-1.5645 0.812,-1.5423 0.812,-1.5204 0.812,-1.499 0.812,-1.478 0.812,-1.4575 0.812,-1.4374 0.812,-1.4175 0.812,-1.3983 0.812,-1.3792 0.812,-1.3606 0.812,-1.3423 0.812,-1.3244 0.812,-1.3068 0.812,-1.2894 0.812,-1.2725 0.812,-1.2558 0.812,-1.2393 0.812,-1.2233 0.812,-1.2073 0.812,-1.1918 0.812,-1.1765 0.812,-1.1613 0.812,-1.1466 0.812,-1.1319 0.812,-1.1176 0.812,-1.1034 0.812,-1.0895 0.812,-1.0758 0.812,-1.0623 0.812,-1.0489 0.812,-1.0358 0.812,-1.0229 0.812,-1.0102 0.812,-0.9976 0.812,-0.9852 0.812,-0.973 0.812,-0.9609 0.812,-0.9491 0.812,-0.9373 0.812,-0.9257 0.812,-0.9144 0.812,-0.903 0.812,-0.8919 0.812,-0.8809 0.812,-0.8701 0.812,-0.8593 0.812,-0.8487 0.812,-0.8383 0.812,-0.8279 0.812,-0.8177 0.812,-0.8075 0.812,-0.7976 0.812,-0.7877 0.812,-0.7779 0.812,-0.7683 0.812,-0.7587 0.812,-0.7492 0.812,-0.7399 0.812,-0.7307 0.812,-0.7214 0.812,-0.7124 0.812,-0.7034 0.812,-0.6946 0.812,-0.6857 0.812,-0.677 0.812,-0.6684 0.812,-0.6598 0.812,-0.6514 0.812,-0.643 0.812,-0.6346 0.812,-0.6264 0.812,-0.6182 0.812,-0.6102 0.812,-0.6021 0.812,-0.5942 0.812,-0.5862 0.812,-0.5785 0.812,-0.5706 0.812,-0.563 0.812,-0.5554 0.812,-0.5478 0.812,-0.5402 0.812,-0.5328 0.812,-0.5254 0.812,-0.518 0.812,-0.5108 0.812,-0.5035 0.812,-0.4963 0.812,-0.4892 0.812,-0.4821 0.812,-0.4751 0.812,-0.468 0.812,-0.4611 0.812,-0.4543 0.812,-0.4473 0.812,-0.4406 0.812,-0.4338 0.812,-0.4271 0.812,-0.4203 0.812,-0.4138 0.812,-0.4071 0.812,-0.4005 0.812,-0.3941 0.812,-0.3875 0.812,-0.3811 0.812,-0.3746 0.812,-0.3683 0.812,-0.3619 0.812,-0.3556 0.812,-0.3493 0.812,-0.343 0.812,-0.3368 0.812,-0.3306 0.812,-0.3245 0.812,-0.3183 0.812,-0.3122 0.812,-0.3061 0.812,-0.3001 0.812,-0.294 0.812,-0.288 0.812,-0.282 0.812,-0.2761 0.812,-0.2701 0.812,-0.2643 0.812,-0.2583 0.812,-0.2525 0.812,-0.2466 0.812,-0.2408 0.812,-0.235 0.812,-0.2292 0.812,-0.2234 0.812,-0.2177 0.812,-0.212 0.812,-0.2062 0.812,-0.2006 0.812,-0.1948 0.812,-0.1892 0.812,-0.1836 0.812,-0.1779 0.812,-0.1723 0.812,-0.1667 0.812,-0.1611 0.812,-0.1556 0.812,-0.1499 0.812,-0.1444 0.812,-0.1389 0.812,-0.1333 0.812,-0.1278 0.812,-0.1223 0.812,-0.1168 0.812,-0.1113 0.812,-0.1058 0.812,-0.1004 0.812,-0.0948 0.812,-0.0894 0.812,-0.084 0.812,-0.0785 0.812,-0.0731 0.812,-0.0676 0.812,-0.0622 0.812,-0.0568 0.812,-0.0513 0.812,-0.046 0.812,-0.0405 0.812,-0.0351 0.812,-0.0297 0.812,-0.0243 0.812,-0.019 0.812,-0.0134 0.812,-0.0081 0.812,-0.0027 0.812,0.0027 0.812,0.0081 0.812,0.0134 0.812,0.019 0.812,0.0243 0.812,0.0297 0.812,0.0351 0.812,0.0405 0.812,0.046 0.812,0.0513 0.812,0.0568 0.812,0.0622 0.812,0.0676 0.812,0.0731 0.812,0.0785 0.812,0.084 0.812,0.0894 0.812,0.0948 0.812,0.1004 0.812,0.1058 0.812,0.1113 0.812,0.1168 0.812,0.1223 0.812,0.1278 0.812,0.1333 0.812,0.1389 0.812,0.1444 0.812,0.1499 0.812,0.1556 0.812,0.1611 0.812,0.1667 0.812,0.1723 0.812,0.1779 0.812,0.1836 0.812,0.1892 0.812,0.1948 0.812,0.2006 0.812,0.2062 0.812,0.212 0.812,0.2177 0.812,0.2234 0.812,0.2292 0.812,0.235 0.812,0.2408 0.812,0.2466 0.812,0.2525 0.812,0.2583 0.812,0.2643 0.812,0.2701 0.812,0.2761 0.812,0.282 0.812,0.288 0.8119,0.294 0.8121,0.3001 0.812,0.3061 0.812,0.3122 0.812,0.3183 0.812,0.3245 0.812,0.3306 0.812,0.3368 0.812,0.343 0.812,0.3493 0.812,0.3556 0.812,0.3619 0.812,0.3683 0.812,0.3746 0.812,0.3811 0.812,0.3875 0.812,0.3941 0.812,0.4005 0.812,0.4071 0.8121,0.4138 0.8119,0.4203 0.812,0.4271 0.812,0.4338 0.812,0.4406 0.812,0.4473 0.812,0.4543 0.812,0.4611 0.812,0.468 0.812,0.4751 0.812,0.4821 0.812,0.4892 0.812,0.4963 0.812,0.5035 0.812,0.5108 0.812,0.518 0.812,0.5254 0.812,0.5328 0.812,0.5402 0.812,0.5478 0.812,0.5554 0.812,0.563 0.812,0.5706 0.812,0.5785 0.812,0.5862 0.812,0.5942 0.812,0.6021 0.812,0.6102 0.812,0.6182 0.812,0.6264 0.812,0.6346 0.812,0.643 0.812,0.6514 0.812,0.6598 0.812,0.6684 0.812,0.677 0.812,0.6857 0.812,0.6946 0.812,0.7034 0.812,0.7124 0.812,0.7214 0.812,0.7307 0.812,0.7399 0.812,0.7492 0.812,0.7587 0.812,0.7683 0.812,0.7779 0.812,0.7877 0.812,0.7976 0.812,0.8075 0.812,0.8177 0.812,0.8279 0.812,0.8383 0.812,0.8487 0.812,0.8593 0.812,0.8701 0.812,0.8809 0.812,0.8919 0.812,0.903 0.812,0.9144 0.812,0.9257 0.812,0.9373 0.812,0.9491 0.812,0.9609 0.812,0.973 0.812,0.9852 0.812,0.9976 0.812,1.0102 0.812,1.0229 0.812,1.0358 0.812,1.0489 0.812,1.0623 0.812,1.0758 0.812,1.0895 0.812,1.1034 0.812,1.1176 0.812,1.1319 0.812,1.1466 0.812,1.1613 0.812,1.1765 0.812,1.1918 0.812,1.2073 0.812,1.2233 0.812,1.2393 0.812,1.2558 0.812,1.2725 0.812,1.2894 0.812,1.3068 0.812,1.3244 0.812,1.3423 0.812,1.3606 0.812,1.3792 0.812,1.3983 0.812,1.4175 0.812,1.4374 0.812,1.4575 0.812,1.478 0.812,1.499 0.812,1.5204 0.812,1.5423 0.812,1.5645 0.812,1.5874 0.812,1.6107 0.812,1.6346 0.812,1.6589 0.812,1.6838 0.8119,1.7093 0.8121,1.7355 0.812,1.7621 0.812,1.7895 0.812,1.8175 0.812,1.8462 0.812,1.8757 0.812,1.9058 0.812,1.9369 0.812,1.9685 0.812,2.0012 0.812,2.0347 0.812,2.0691 0.812,2.1044 0.812,2.1408 0.812,2.1781 0.812,2.2165 0.812,2.2561 0.812,2.2968 0.8121,2.3387 0.8119,2.3819 0.812,2.4265 0.812,2.4723 0.812,2.5197 0.812,2.5686 0.812,2.6189 0.812,2.6711 0.812,2.7248 0.812,2.7804 0.812,2.8378 0.812,2.8972 0.812,2.9587 0.812,3.0222 0.812,3.088 0.812,3.1561 0.812,3.2265 0.812,3.2995 0.812,3.375 0.812,3.4531 0.812,3.5341 0.812,3.6177 0.812,3.7043 0.812,3.7937 0.812,3.886 0.812,3.9812 0.812,4.0792 0.812,4.18 0.812,4.2831 0.812,4.3886 0.812,4.4957 0.812,4.6042 0.812,4.7131 0.812,4.8216 0.812,4.9282 0.812,5.0312 0.812,5.1288 0.812,5.2178 0.812,5.295 0.812,5.3562 0.812,5.3959 0.812,5.4078 0.812,5.3844 0.812,5.3168 0.812,5.195 0.812,5.0082 0.812,4.7457 0.812,4.3971 0.812,3.9548 0.812,3.4147 0.812,2.7788 0.812,2.0562 0.812,1.264 0.812,0.4265 0.812,-0.4265 0.812,-1.264 0.812,-2.0562 0.812,-2.7788 0.812,-3.4147 0.812,-3.9548 0.812,-4.3971 0.812,-4.7457 0.812,-5.0082 0.812,-5.195 0.812,-5.3168 0.812,-5.3844 0.812,-5.4078 0.812,-5.3959 0.812,-5.3562 0.812,-5.295 0.812,-5.2178 0.812,-5.1288 0.812,-5.0312 0.812,-4.9282 0.812,-4.8216 0.812,-4.7131 0.812,-4.6042 0.812,-4.4957 0.812,-4.3886 0.812,-4.2831 0.812,-4.18 0.812,-4.0792 0.812,-3.9812 0.812,-3.886 0.812,-3.7937 0.812,-3.7043 0.812,-3.6177 0.812,-3.5341 0.812,-3.4531 0.812,-3.375 0.812,-3.2995 0.812,-3.2265 0.812,-3.1561 0.812,-3.088 0.812,-3.0222 0.812,-2.9587 0.812,-2.8972 0.812,-2.8378 0.812,-2.7804 0.812,-2.7248 0.812,-2.6711 0.812,-2.6189 0.812,-2.5686 0.812,-2.5197 0.812,-2.4723 0.812,-2.4265 0.8119,-2.3819 0.8121,-2.3387 0.812,-2.2968 0.812,-2.2561 0.812,-2.2165 0.812,-2.1781 0.812,-2.1408 0.812,-2.1044 0.812,-2.0691 0.812,-2.0347 0.812,-2.0012 0.812,-1.9685 0.812,-1.9369 0.812,-1.9058 0.812,-1.8757 0.812,-1.8462 0.812,-1.8175 0.812,-1.7895 0.812,-1.7621 0.8121,-1.7355 0.8119,-1.7093 0.812,-1.6838 0.812,-1.6589 0.812,-1.6346 0.812,-1.6107 0.812,-1.5874 0.812,-1.5645 0.812,-1.5423 0.812,-1.5204 0.812,-1.499 0.812,-1.478 0.812,-1.4575 0.812,-1.4374 0.812,-1.4175 0.812,-1.3983 0.812,-1.3792 0.812,-1.3606 0.812,-1.3423 0.812,-1.3244 0.812,-1.3068 0.812,-1.2894 0.812,-1.2725 0.812,-1.2558 0.812,-1.2393 0.812,-1.2233 0.812,-1.2073 0.812,-1.1918 0.812,-1.1765 0.812,-1.1613 0.812,-1.1466 0.812,-1.1319 0.812,-1.1176 0.812,-1.1034 0.812,-1.0895 0.812,-1.0758 0.812,-1.0623 0.812,-1.0489 0.812,-1.0358 0.812,-1.0229 0.812,-1.0102 0.812,-0.9976 0.812,-0.9852 0.812,-0.973 0.812,-0.9609 0.812,-0.9491 0.812,-0.9373 0.812,-0.9257 0.812,-0.9144 0.812,-0.903 0.812,-0.8919 0.812,-0.8809 0.812,-0.8701 0.812,-0.8593 0.812,-0.8487 0.812,-0.8383 0.812,-0.8279 0.812,-0.8177 0.812,-0.8075 0.812,-0.7976 0.812,-0.7877 0.812,-0.7779 0.812,-0.7683 0.812,-0.7587 0.812,-0.7492 0.812,-0.7399 0.812,-0.7307 0.812,-0.7214 0.812,-0.7124 0.812,-0.7034 0.812,-0.6946 0.812,-0.6857 0.812,-0.677 0.812,-0.6684 0.812,-0.6598 0.812,-0.6514 0.812,-0.643 0.812,-0.6346 0.812,-0.6264 0.812,-0.6182 0.812,-0.6102 0.812,-0.6021 0.812,-0.5942 0.812,-0.5862 0.812,-0.5785 0.812,-0.5706 0.812,-0.563 0.812,-0.5554 0.812,-0.5478 0.812,-0.5402 0.812,-0.5328 0.812,-0.5254 0.812,-0.518 0.812,-0.5108 0.812,-0.5035 0.812,-0.4963 0.812,-0.4892 0.812,-0.4821 0.812,-0.4751 0.812,-0.468 0.812,-0.4611 0.812,-0.4543 0.812,-0.4473 0.812,-0.4406 0.812,-0.4338 0.812,-0.4271 0.8119,-0.4203 0.8121,-0.4138 0.812,-0.4071 0.812,-0.4005 0.812,-0.3941 0.812,-0.3875 0.812,-0.3811 0.812,-0.3746 0.812,-0.3683 0.812,-0.3619 0.812,-0.3556 0.812,-0.3493 0.812,-0.343 0.812,-0.3368 0.812,-0.3306 0.812,-0.3245 0.812,-0.3183 0.812,-0.3122 0.812,-0.3061 0.8121,-0.3001 0.8119,-0.294 0.812,-0.288 0.812,-0.282 0.812,-0.2761 0.812,-0.2701 0.812,-0.2643 0.812,-0.2583 0.812,-0.2525 0.812,-0.2466 0.812,-0.2408 0.812,-0.235 0.812,-0.2292 0.812,-0.2234 0.812,-0.2177 0.812,-0.212 0.812,-0.2062 0.812,-0.2006 0.812,-0.1948 0.812,-0.1892 0.812,-0.1836 0.812,-0.1779 0.812,-0.1723 0.812,-0.1667 0.812,-0.1611 0.812,-0.1556 0.812,-0.1499 0.812,-0.1444 0.812,-0.1389 0.812,-0.1333 0.812,-0.1278 0.812,-0.1223 0.812,-0.1168 0.812,-0.1113 0.812,-0.1058 0.812,-0.1004 0.812,-0.0948 0.812,-0.0894 0.812,-0.084 0.812,-0.0785 0.812,-0.0731 0.812,-0.0676 0.812,-0.0622 0.812,-0.0568 0.812,-0.0513 0.812,-0.046 0.812,-0.0405 0.812,-0.0351 0.812,-0.0297 0.812,-0.0243 0.812,-0.019 0.812,-0.0134 0.812,-0.0081 0.812,-0.0027"
       style="fill:none;fill-rule:evenodd;stroke:url(#linearGradient74)"
       id="path69" />
  </g>
  <g
     style="color-interpolation:linearRGB;fill:none;stroke:#ffffff;stroke-width:4;stroke-linecap:butt;stroke-linejoin:bevel;stroke-miterlimit:1;stroke-dasharray:16, 16;color-rendering:optimizeQuality;image-rendering:optimizeQuality;text-rendering:geometricPrecision"
     id="g71"
     transform="translate(2,406.97784)">
    <path
       d="m 136.812,245.1734 h 0.812 0.812 0.812 0.812 0.812 0.812 0.812 0.812 0.812 0.812 0.812 0.812 0.812 0.812 0.812 0.812 0.812 0.812 0.812 0.812 0.812 0.812 0.812 0.812 0.812 0.812 0.812 0.812 0.812 0.812 0.812 0.812 0.812 0.812 0.812 0.812 0.812 0.812 0.812 0.812 0.812 0.812 0.812 0.812 0.812 0.812 0.812 0.812 0.812 0.812 0.812 0.812 0.812 0.812 0.812 0.812 0.812 0.812 0.812 0.812 0.812 0.812 0.812 0.812 0.812 0.812 0.812 0.812 0.812 0.812 0.812 0.812 0.812 0.812 0.812 0.812 0.812 0.812 0.812 0.812 0.812 0.812 0.812 0.812 0.812 0.812 0.812 0.812 0.812 0.812 0.812 0.812 0.812 0.812 0.812 0.812 0.812 0.812 0.812 0.812 0.812 0.812 0.812 0.812 0.812 0.812 0.812 0.812 0.812 0.812 0.812 0.812 0.812 0.812 0.812 0.812 0.812 0.812 0.812 0.812 0.812 0.812 0.812 0.812 0.812 0.812 0.812 0.812 0.812 0.812 0.812 0.812 0.812 0.812 0.812 0.812 0.812 0.812 0.812 0.812 0.812 0.812 0.812 0.812 0.812 0.812 0.812 0.812 0.812 0.812 0.812 0.812 0.812 0.812 0.812 0.812 0.812 0.812 0.812 0.812 0.812 0.812 0.812 0.812 0.812 0.812 0.812 0.812 0.812 0.812 0.812 0.812 0.812 0.812 0.812 0.812 0.812 0.812 0.812 0.812 0.812 0.812 0.812 0.812 0.812 0.812 0.812 0.812 0.812 0.812 0.812 0.812 0.812 0.812 0.812 0.812 0.812 0.812 0.812 0.812 0.812 0.812 0.812 0.812 0.812 0.812 0.812 0.812 0.812 0.812 0.812 0.812 0.812 0.812 0.812 0.812 0.812 0.812 0.812 0.812 0.812 0.812 0.812 0.812 0.812 0.812 0.812 0.812 0.812 0.812 0.812 0.812 0.812 0.812 0.812 0.812 0.812 0.812 0.812 0.812 0.812 0.812 0.812 0.812 0.812 0.812 0.812 0.812 0.812 0.812 0.812 0.812 0.812 0.812 0.812 0.812 0.812 0.812 0.812 0.812 0.812 0.812 0.812 0.812 0.812 0.812 0.812 0.812 0.812 0.812 0.812 0.812 0.812 0.812 0.812 0.812 0.812 0.812 0.812 0.812 0.812 0.812 0.812 0.812 0.812 0.812 0.812 0.812 0.812 0.812 0.812 0.812 0.812 0.812 0.812 0.812 0.812 0.812 0.812 0.812 0.812 0.812 0.812 0.812 0.812 0.812 0.812 0.812 0.812 0.812 0.812 0.812 0.812 0.812 0.812 0.812 0.812 0.812 0.812 0.812 0.812 0.812 0.812 0.812 0.812 0.812 0.812 0.812 0.812 0.812 0.812 0.812 0.812 0.812 0.812 0.812 0.812 0.812 0.812 0.812 0.812 0.812 0.812 0.812 0.812 0.812 0.812 0.812 0.812 0.812 0.812 0.812 0.812 0.812 0.812 0.812 0.812 0.812 0.812 0.812 0.812 0.812 0.812 0.812 0.812 0.812 0.812 0.812 0.812 0.812 0.812 0.812 0.812 0.812 0.812 0.812 0.812 0.812 0.812 0.812 0.812 0.812 0.812 0.812 0.812 0.812 0.812 0.812 0.812 0.812 0.812 0.812 0.812 0.812 0.812 0.812 0.812 0.812 0.812 0.812 0.812 0.812 0.812 0.812 0.812 0.812 0.812 0.812 0.812 0.812 0.812 0.812 0.812 0.812 0.812 0.812 0.812 0.812 0.812 0.812 0.812 0.812 0.812 0.812 0.812 0.812 0.812 0.812 0.812 0.812 0.812 0.812 0.812 0.812 0.812 0.812 0.812 0.812 0.812 0.812 0.812 0.812 0.812 0.812 0.812 0.812 0.812 0.812 0.812 0.812 0.812 0.812 0.812 0.812 0.812 0.812 0.812 0.812 0.812 0.812 0.812 0.812 0.812 0.812 0.812 0.812 0.812 0.812 0.812 0.812 0.812 0.812 0.812 0.812 0.812 0.812 0.812 0.812 0.812 0.812 0.812 0.812 0.812 0.812 0.812 0.812 0.812 0.812 0.812 0.812 0.812 0.812 0.812 0.812 0.812 0.812 0.812 0.812 0.812 0.812 0.812 0.812 0.812 0.812 0.812 0.812 0.812 0.812 0.812 0.812 0.812 0.812 0.812 0.812 0.812 0.812 0.812 0.812 0.812 0.812 0.812 0.812 0.812 0.812 0.812 0.812 0.812 0.812 0.812 0.812 0.812 0.812 0.812 0.812 0.812 0.812 0.812 0.812 0.812 0.812 0.812 0.812 0.812 0.812 0.812 0.812 0.812 0.812 0.812 0.812 0.812 0.8119 0.8121 0.812 0.812 0.812 0.812 0.812 0.812 0.812 0.812 0.812 0.812 0.812 0.812 0.812 0.812 0.812 0.812 0.812 0.8121 0.8119 0.812 0.812 0.812 0.812 0.812 0.812 0.812 0.812 0.812 0.812 0.812 0.812 0.812 0.812 0.812 0.812 0.812 0.812 0.812 0.812 0.812 0.812 0.812 0.812 0.812 0.812 0.812 0.812 0.812 0.812 0.812 0.812 0.812 0.812 0.812 0.812 0.812 0.812 0.812 0.812 0.812 0.812 0.812 0.812 0.812 0.812 0.812 0.812 0.812 0.812 0.812 0.812 0.812 0.812 0.812 0.812 0.812 0.812 0.812 0.812 0.812 0.812 0.812 0.812 0.812 0.812 0.812 0.812 0.812 0.812 0.812 0.812 0.812 0.812 0.812 0.812 0.812 0.812 0.812 0.812 0.812 0.812 0.812 0.812 0.812 0.812 0.812 0.812 0.812 0.812 0.812 0.812 0.812 0.812 0.812 0.812 0.812 0.812 0.812 0.812 0.812 0.812 0.812 0.812 0.8119 0.8121 0.812 0.812 0.812 0.812 0.812 0.812 0.812 0.812 0.812 0.812 0.812 0.812 0.812 0.812 0.812 0.812 0.812 0.8121 0.8119 0.812 0.812 0.812 0.812 0.812 0.812 0.812 0.812 0.812 0.812 0.812 0.812 0.812 0.812 0.812 0.812 0.812 0.812 0.812 0.812 0.812 0.812 0.812 0.812 0.812 0.812 0.812 0.812 0.812 0.812 0.812 0.812 0.812 0.812 0.812 0.812 0.812 0.812 0.812 0.812 0.812 0.812 0.812 0.812 0.812 0.812 0.812 0.812 0.812 0.812 0.812 0.812 0.812 0.812 0.812 0.812 0.812 0.812 0.812 0.812 0.812 0.812 0.812 0.812 0.812 0.812 0.812 0.812 0.812 0.812 0.812 0.812 0.812 0.812 0.812 0.812 0.812 0.812 0.812 0.812 0.812 0.812 0.812 0.812 0.812 0.812 0.812 0.812 0.812 0.812 0.812 0.812 0.812 0.812 0.812 0.812 0.812 0.812 0.812 0.812 0.812 0.812 0.812 0.812 0.8119 0.8121 0.812 0.812 0.812 0.812 0.812 0.812 0.812 0.812 0.812 0.812 0.812 0.812 0.812 0.812 0.812 0.812 0.812 0.8121 0.8119 0.812 0.812 0.812 0.812 0.812 0.812 0.812 0.812 0.812 0.812 0.812 0.812 0.812 0.812 0.812 0.812 0.812 0.812 0.812 0.812 0.812 0.812 0.812 0.812 0.812 0.812 0.812 0.812 0.812 0.812 0.812 0.812 0.812 0.812 0.812 0.812 0.812 0.812 0.812 0.812 0.812 0.812 0.812 0.812 0.812 0.812 0.812 0.812 0.812 0.812 0.812 0.812 0.812 0.812 0.812 0.812 0.812 0.812 0.812 0.812 0.812 0.812 0.812 0.812 0.812 0.812 0.812 0.812 0.812 0.812 0.812 0.812 0.812 0.812 0.812 0.812 0.812 0.812 0.812 0.812 0.812 0.812 0.812 0.812 0.812 0.812 0.812 0.812 0.812 0.812 0.812 0.812 0.812 0.812 0.812 0.812 0.812 0.812 0.812 0.812 0.812 0.812 0.812 0.812 0.8119 0.8121 0.812 0.812 0.812 0.812 0.812 0.812 0.812 0.812 0.812 0.812 0.812 0.812 0.812 0.812 0.812 0.812 0.812 0.8121 0.8119 0.812 0.812 0.812 0.812 0.812 0.812 0.812 0.812 0.812 0.812 0.812 0.812 0.812 0.812 0.812 0.812 0.812 0.812 0.812 0.812 0.812 0.812 0.812 0.812 0.812 0.812 0.812 0.812 0.812 0.812 0.812 0.812 0.812 0.812 0.812 0.812 0.812 0.812 0.812 0.812 0.812 0.812 0.812 0.812 0.812 0.812 0.812 0.812 0.812 0.812 0.812 0.812"
       style="fill:none;fill-rule:evenodd;stroke:#ffffff"
       id="path70" />
  </g>
  <path
     style="fill:none;fill-rule:evenodd;stroke:#ffffff;stroke-width:2.545;stroke-linecap:butt;stroke-linejoin:miter;stroke-dasharray:none;stroke-opacity:1;marker-start:url(#DartArrow);marker-end:url(#DartArrow)"
     d="M 104.31006,47.518454 V 349.87519 H 995.0288"
     id="path5907"
     inkscape:connector-curvature="0" />
  <path
     style="fill:none;fill-rule:evenodd;stroke:#aa0000;stroke-width:12.181;stroke-linecap:butt;stroke-linejoin:miter;stroke-miterlimit:4;stroke-dasharray:none;stroke-opacity:1;marker-end:url(#Arrow1Send)"
     d="M 232.79097,192.2778 V 316.22346"
     id="path6031"
     inkscape:connector-curvature="0" />
  <path
     style="fill:none;fill-rule:evenodd;stroke:#ffcc00;stroke-width:12.181;stroke-linecap:butt;stroke-linejoin:miter;stroke-miterlimit:4;stroke-dasharray:none;stroke-opacity:1;marker-end:url(#Arrow1Send-6-5)"
     d="M 815.79079,192.2778 V 316.22346"
     id="path6031-3"
     inkscape:connector-curvature="0" />
  <path
     style="fill:none;fill-rule:evenodd;stroke:#ff0000;stroke-width:12.181;stroke-linecap:butt;stroke-linejoin:miter;stroke-miterlimit:4;stroke-dasharray:none;stroke-opacity:1;marker-end:url(#Arrow1Send-9-9)"
     d="M 524.29079,327.19551 V 203.24987"
     id="path6031-37"
     inkscape:connector-curvature="0" />
  <path
     style="fill:none;fill-rule:evenodd;stroke:#ff0000;stroke-width:12.181;stroke-linecap:butt;stroke-linejoin:miter;stroke-miterlimit:4;stroke-dasharray:none;stroke-opacity:1;marker-end:url(#Arrow1Send-62-3)"
     d="M 524.29079,185.24454 V 61.298894"
     id="path6031-8"
     inkscape:connector-curvature="0" />
  <text
     xml:space="preserve"
     style="font-style:italic;font-variant:normal;font-weight:normal;font-stretch:normal;font-size:30.9272px;line-height:0%;font-family:Arial;-inkscape-font-specification:'Arial, Italic';text-align:start;letter-spacing:0px;word-spacing:0px;writing-mode:lr-tb;text-anchor:start;fill:#ffffff;fill-opacity:1;stroke:none;stroke-width:2.57725px;stroke-linecap:butt;stroke-linejoin:miter;stroke-opacity:1"
     x="201.2993"
     y="170.29341"
     id="text7268"
     transform="scale(1.0313665,0.96958743)"><tspan
       sodipodi:role="line"
       id="tspan7270"
       x="201.2993"
       y="170.29341"
       style="font-style:italic;font-variant:normal;font-weight:normal;font-stretch:normal;font-size:77.3178px;line-height:125%;font-family:Arial;-inkscape-font-specification:'Arial, Italic';text-align:start;writing-mode:lr-tb;text-anchor:start;fill:#ffffff;stroke-width:2.57725px">p</tspan></text>
  <text
     xml:space="preserve"
     style="font-style:italic;font-variant:normal;font-weight:normal;font-stretch:normal;font-size:30.9272px;line-height:0%;font-family:Arial;-inkscape-font-specification:'Arial, Italic';text-align:start;letter-spacing:0px;word-spacing:0px;writing-mode:lr-tb;text-anchor:start;fill:#ffffff;fill-opacity:1;stroke:none;stroke-width:2.57725px;stroke-linecap:butt;stroke-linejoin:miter;stroke-opacity:1"
     x="764.37085"
     y="171.28506"
     id="text7268-7"
     transform="scale(1.0313665,0.96958743)"><tspan
       sodipodi:role="line"
       id="tspan7270-1"
       x="764.37085"
       y="171.28506"
       style="font-style:italic;font-variant:normal;font-weight:normal;font-stretch:normal;font-size:77.3178px;line-height:125%;font-family:Arial;-inkscape-font-specification:'Arial, Italic';text-align:start;writing-mode:lr-tb;text-anchor:start;fill:#ffffff;stroke-width:2.57725px">q</tspan></text>
  <text
     xml:space="preserve"
     style="font-style:italic;font-variant:normal;font-weight:normal;font-stretch:normal;font-size:29.8826px;line-height:0%;font-family:Arial;-inkscape-font-specification:'Arial, Italic';text-align:start;letter-spacing:0px;word-spacing:0px;writing-mode:lr-tb;text-anchor:start;fill:#ffffff;fill-opacity:1;stroke:none;stroke-width:2.4902px;stroke-linecap:butt;stroke-linejoin:miter;stroke-opacity:1"
     x="209.98543"
     y="398.97421"
     id="text7268-4"
     transform="scale(0.99653087,1.0034812)"><tspan
       sodipodi:role="line"
       id="tspan7270-3"
       x="209.98543"
       y="398.97421"
       style="font-style:italic;font-variant:normal;font-weight:normal;font-stretch:normal;font-size:74.7063px;line-height:125%;font-family:Arial;-inkscape-font-specification:'Arial, Italic';text-align:start;writing-mode:lr-tb;text-anchor:start;fill:#ffffff;stroke-width:2.4902px"><tspan
   style="font-size:48.5591px;baseline-shift:sub;fill:#ffffff;stroke-width:2.4902px"
   id="tspan10814">p</tspan></tspan></text>
  <text
     xml:space="preserve"
     style="font-style:italic;font-variant:normal;font-weight:normal;font-stretch:normal;font-size:29.8826px;line-height:0%;font-family:Arial;-inkscape-font-specification:'Arial, Italic';text-align:start;letter-spacing:0px;word-spacing:0px;writing-mode:lr-tb;text-anchor:start;fill:#ffffff;fill-opacity:1;stroke:none;stroke-width:2.4902px;stroke-linecap:butt;stroke-linejoin:miter;stroke-opacity:1"
     x="498.85834"
     y="397.71512"
     id="text7268-4-6"
     transform="scale(0.99653087,1.0034812)"><tspan
       sodipodi:role="line"
       id="tspan7270-3-0"
       x="498.85834"
       y="397.71512"
       style="font-style:italic;font-variant:normal;font-weight:normal;font-stretch:normal;font-size:74.7063px;line-height:125%;font-family:Arial;-inkscape-font-specification:'Arial, Italic';text-align:start;writing-mode:lr-tb;text-anchor:start;fill:#ffffff;stroke-width:2.4902px"><tspan
   style="font-size:48.5591px;baseline-shift:sub;fill:#ffffff;stroke-width:2.4902px"
   id="tspan12610">s</tspan></tspan></text>
  <text
     xml:space="preserve"
     style="font-style:italic;font-variant:normal;font-weight:normal;font-stretch:normal;font-size:29.8826px;line-height:0%;font-family:Arial;-inkscape-font-specification:'Arial, Italic';text-align:start;letter-spacing:0px;word-spacing:0px;writing-mode:lr-tb;text-anchor:start;fill:#ffffff;fill-opacity:1;stroke:none;stroke-width:2.4902px;stroke-linecap:butt;stroke-linejoin:miter;stroke-opacity:1"
     x="788.73633"
     y="396.65115"
     id="text7268-4-8"
     transform="scale(0.99653087,1.0034812)"><tspan
       sodipodi:role="line"
       id="tspan7270-3-3"
       x="788.73633"
       y="396.65115"
       style="font-style:italic;font-variant:normal;font-weight:normal;font-stretch:normal;font-size:74.7063px;line-height:125%;font-family:Arial;-inkscape-font-specification:'Arial, Italic';text-align:start;writing-mode:lr-tb;text-anchor:start;fill:#ffffff;stroke-width:2.4902px"><tspan
   style="font-size:48.5591px;baseline-shift:sub;fill:#ffffff;stroke-width:2.4902px"
   id="tspan13434">q</tspan></tspan></text>
  <text
     xml:space="preserve"
     style="font-style:italic;font-variant:normal;font-weight:normal;font-stretch:normal;font-size:30.9272px;line-height:0%;font-family:Arial;-inkscape-font-specification:'Arial, Italic';text-align:start;letter-spacing:0px;word-spacing:0px;writing-mode:lr-tb;text-anchor:start;fill:#ffffff;fill-opacity:1;stroke:none;stroke-width:2.57725px;stroke-linecap:butt;stroke-linejoin:miter;stroke-opacity:1"
     x="443.46896"
     y="87.162628"
     id="text7268-5"
     transform="scale(1.0313665,0.96958743)"><tspan
       sodipodi:role="line"
       id="tspan7270-10"
       x="443.46896"
       y="87.162628"
       style="font-style:italic;font-variant:normal;font-weight:normal;font-stretch:normal;font-size:77.3178px;line-height:125%;font-family:Arial;-inkscape-font-specification:'Arial, Italic';text-align:start;writing-mode:lr-tb;text-anchor:start;fill:#ffffff;stroke-width:2.57725px">s</tspan></text>
  <path
     style="fill:none;fill-rule:evenodd;stroke:#ffffff;stroke-width:2.83267px;stroke-linecap:butt;stroke-linejoin:miter;stroke-opacity:1;marker-start:url(#marker7779-1);marker-end:url(#marker7885-8)"
     d="M 252.454,241.00362 H 508.42239"
     id="path7685"
     inkscape:connector-curvature="0" />
  <path
     style="fill:none;fill-rule:evenodd;stroke:#ffffff;stroke-width:2.83267px;stroke-linecap:butt;stroke-linejoin:miter;stroke-opacity:1;marker-start:url(#marker7779-9-7);marker-end:url(#marker7885-2-0)"
     d="m 539.13869,241.00362 h 255.9684"
     id="path7685-8"
     inkscape:connector-curvature="0" />
  <text
     xml:space="preserve"
     style="font-style:normal;font-variant:normal;font-weight:normal;font-stretch:normal;font-size:30.9272px;line-height:0%;font-family:'Times New Roman';-inkscape-font-specification:'Times New Roman, Normal';text-align:start;letter-spacing:0px;word-spacing:0px;writing-mode:lr-tb;text-anchor:start;fill:#ffffff;fill-opacity:1;stroke:none;stroke-width:2.57725px;stroke-linecap:butt;stroke-linejoin:miter;stroke-opacity:1"
     x="317.48676"
     y="237.37592"
     id="text8470"
     transform="scale(1.0313665,0.96958743)"><tspan
       sodipodi:role="line"
       id="tspan8472"
       x="317.48676"
       y="237.37592"
       style="font-style:normal;font-variant:normal;font-weight:normal;font-stretch:normal;font-size:77.3178px;line-height:1.25;font-family:Arial;-inkscape-font-specification:Arial;fill:#ffffff;stroke-width:2.57725px"><tspan
   style="font-style:italic;fill:#ffffff;stroke-width:2.57725px"
   id="tspan8476"></tspan></tspan></text>
  <text
     xml:space="preserve"
     style="font-style:normal;font-variant:normal;font-weight:normal;font-stretch:normal;font-size:30.9272px;line-height:0%;font-family:'Times New Roman';-inkscape-font-specification:'Times New Roman, Normal';text-align:start;letter-spacing:0px;word-spacing:0px;writing-mode:lr-tb;text-anchor:start;fill:#ffffff;fill-opacity:1;stroke:none;stroke-width:2.57725px;stroke-linecap:butt;stroke-linejoin:miter;stroke-opacity:1"
     x="580.84686"
     y="237.37592"
     id="text8470-1"
     transform="scale(1.0313665,0.96958743)"><tspan
       sodipodi:role="line"
       id="tspan8472-1"
       x="580.84686"
       y="237.37592"
       style="font-style:normal;font-variant:normal;font-weight:normal;font-stretch:normal;font-size:77.3178px;line-height:1.25;font-family:Arial;-inkscape-font-specification:Arial;fill:#ffffff;stroke-width:2.57725px"><tspan
   style="font-style:italic;fill:#ffffff;stroke-width:2.57725px"
   id="tspan8476-2"></tspan></tspan></text>
</svg>
